<svg width="125" height="32" viewBox="0 0 125 32" fill="none" xmlns="http://www.w3.org/2000/svg">
<rect x="0.5" y="0.5" width="124" height="31" rx="15.5" fill="#00F16F"/>
<rect x="0.5" y="0.5" width="124" height="31" rx="15.5" stroke="#03D664"/>
<path d="M28.2012 17.5342H23.8213V19.54H22.1836V17.5342H17.626V16.2393H28.2012V17.5342ZM27.0332 21.9648H18.8828V18.5117H20.5205V20.6572H27.0332V21.9648ZM22.9072 10.8311C23.7367 10.8353 24.4645 10.9368 25.0908 11.1357C25.7214 11.3304 26.2101 11.6076 26.5571 11.9673C26.9041 12.327 27.0798 12.748 27.084 13.2305C27.0798 13.7171 26.9041 14.1403 26.5571 14.5C26.2101 14.8597 25.7214 15.1369 25.0908 15.3315C24.4645 15.522 23.7367 15.6172 22.9072 15.6172C22.0736 15.6172 21.3394 15.522 20.7046 15.3315C20.0741 15.1369 19.5853 14.8597 19.2383 14.5C18.8913 14.1403 18.7178 13.7171 18.7178 13.2305C18.7178 12.748 18.8913 12.327 19.2383 11.9673C19.5853 11.6076 20.0741 11.3304 20.7046 11.1357C21.3394 10.9368 22.0736 10.8353 22.9072 10.8311ZM22.9072 12.1133C22.1413 12.1133 21.5425 12.2106 21.1108 12.4053C20.6792 12.5957 20.4655 12.8708 20.4697 13.2305C20.4655 13.5817 20.6792 13.8525 21.1108 14.043C21.5467 14.2292 22.1455 14.3223 22.9072 14.3223C23.6605 14.3223 24.255 14.2292 24.6909 14.043C25.1268 13.8525 25.3447 13.5817 25.3447 13.2305C25.3447 12.8708 25.1268 12.5957 24.6909 12.4053C24.2593 12.2106 23.6647 12.1133 22.9072 12.1133ZM31.5986 11.2373C32.0514 11.2373 32.4746 11.3156 32.8682 11.4722C33.2617 11.6287 33.5981 11.8509 33.8774 12.1387H36.499V10.6152H38.1113V17.3818H36.499V15.998H33.8647C33.5854 16.2816 33.2469 16.5016 32.8491 16.6582C32.4556 16.8105 32.0303 16.8867 31.5732 16.8867C31.002 16.8867 30.4836 16.764 30.0181 16.5186C29.5526 16.2731 29.1865 15.9367 28.9199 15.5093C28.6533 15.0776 28.5221 14.5973 28.5264 14.0684C28.5221 13.5267 28.6533 13.0422 28.9199 12.6147C29.1865 12.1831 29.5547 11.8467 30.0244 11.6055C30.4941 11.36 31.0189 11.2373 31.5986 11.2373ZM31.5986 12.6211C31.2982 12.6211 31.0295 12.6782 30.7925 12.7925C30.5597 12.9067 30.3778 13.0739 30.2466 13.2939C30.1196 13.514 30.0583 13.7721 30.0625 14.0684C30.0583 14.3604 30.1217 14.6164 30.2529 14.8364C30.3841 15.0565 30.5661 15.2257 30.7988 15.3442C31.0316 15.4627 31.2982 15.5199 31.5986 15.5156C31.8906 15.5199 32.1509 15.4627 32.3794 15.3442C32.6079 15.2257 32.7856 15.0565 32.9126 14.8364C33.0438 14.6164 33.1094 14.3604 33.1094 14.0684C33.1094 13.7721 33.0438 13.514 32.9126 13.2939C32.7856 13.0739 32.6079 12.9067 32.3794 12.7925C32.1509 12.6782 31.8906 12.6211 31.5986 12.6211ZM34.1631 17.623C34.9756 17.623 35.6802 17.714 36.2769 17.896C36.8778 18.0737 37.339 18.334 37.6606 18.6768C37.9823 19.0153 38.1452 19.4215 38.1494 19.8955C38.1452 20.3695 37.9823 20.7757 37.6606 21.1143C37.339 21.457 36.8778 21.7173 36.2769 21.895C35.6802 22.077 34.9756 22.168 34.1631 22.168C33.3506 22.168 32.646 22.077 32.0493 21.895C31.4526 21.7173 30.9935 21.457 30.6719 21.1143C30.3503 20.7757 30.1895 20.3695 30.1895 19.8955C30.1895 19.4215 30.3503 19.0153 30.6719 18.6768C30.9935 18.334 31.4526 18.0737 32.0493 17.896C32.646 17.714 33.3506 17.623 34.1631 17.623ZM34.1631 18.8545C33.3887 18.8545 32.7962 18.9412 32.3857 19.1147C31.9795 19.2882 31.7764 19.5485 31.7764 19.8955C31.7764 20.2298 31.9795 20.4837 32.3857 20.6572C32.7962 20.8265 33.3887 20.9111 34.1631 20.9111C34.946 20.9111 35.5405 20.8265 35.9468 20.6572C36.3573 20.4837 36.5625 20.2298 36.5625 19.8955C36.5625 19.5485 36.3594 19.2882 35.9531 19.1147C35.5469 18.9412 34.9502 18.8545 34.1631 18.8545ZM34.5757 13.4209C34.6222 13.6325 34.6455 13.8483 34.6455 14.0684C34.6455 14.2799 34.6222 14.4915 34.5757 14.7031H36.499V13.4209H34.5757ZM43.6162 12.9004C43.6162 13.3786 43.7157 13.8398 43.9146 14.2842C44.1177 14.7243 44.4245 15.12 44.835 15.4712C45.2497 15.8182 45.7617 16.0827 46.3711 16.2646L45.5459 17.5342C44.9154 17.3353 44.3695 17.0391 43.9082 16.6455C43.4469 16.252 43.083 15.7865 42.8164 15.249C42.5456 15.833 42.1732 16.3408 41.6992 16.7725C41.2253 17.2041 40.6582 17.5299 39.998 17.75L39.1602 16.4805C39.778 16.2816 40.2964 15.9959 40.7153 15.6235C41.1343 15.2511 41.4474 14.8301 41.6548 14.3604C41.8621 13.8906 41.9658 13.404 41.9658 12.9004V12.7354H39.5918V11.4404H45.9395V12.7354H43.6162V12.9004ZM48.7832 18.9814H47.1582V10.6279H48.7832V18.9814ZM49.0879 21.9648H41.0391V18.2197H42.6768V20.6699H49.0879V21.9648ZM62.0781 19.0703H60.4658V16.3281H57.8252C57.5417 16.6286 57.2031 16.8634 56.8096 17.0327C56.4202 17.1978 56.0055 17.2803 55.5654 17.2803C54.9899 17.2803 54.4673 17.1512 53.9976 16.8931C53.5278 16.6349 53.1576 16.2795 52.8867 15.8267C52.6201 15.3696 52.4889 14.8597 52.4932 14.2969C52.4889 13.7256 52.6201 13.2135 52.8867 12.7607C53.1533 12.3037 53.5215 11.9461 53.9912 11.688C54.4609 11.4256 54.9857 11.2923 55.5654 11.2881C56.0098 11.2923 56.4245 11.377 56.8096 11.542C57.1989 11.707 57.5353 11.9398 57.8188 12.2402H60.4658V10.6279H62.0781V19.0703ZM62.3574 21.9648H54.4102V18.2197H56.0352V20.6699H62.3574V21.9648ZM55.5654 12.7354C55.265 12.7354 54.9963 12.7988 54.7593 12.9258C54.5265 13.0485 54.3446 13.2284 54.2134 13.4653C54.0864 13.7023 54.0251 13.9795 54.0293 14.2969C54.0251 14.61 54.0864 14.8851 54.2134 15.1221C54.3446 15.3548 54.5265 15.5347 54.7593 15.6616C54.9963 15.7843 55.265 15.8457 55.5654 15.8457C55.849 15.8457 56.105 15.7843 56.3335 15.6616C56.5662 15.5347 56.7482 15.3548 56.8794 15.1221C57.0106 14.8851 57.0762 14.61 57.0762 14.2969C57.0762 13.9795 57.0106 13.7023 56.8794 13.4653C56.7482 13.2284 56.5662 13.0485 56.3335 12.9258C56.105 12.7988 55.849 12.7354 55.5654 12.7354ZM58.5234 13.5352C58.5827 13.7848 58.6123 14.0387 58.6123 14.2969C58.6123 14.5423 58.5827 14.7878 58.5234 15.0332H60.4658V13.5352H58.5234ZM68.7891 14.8047H65.1074V15.9092C66.1315 15.9007 66.9906 15.8732 67.6846 15.8267C68.3828 15.7801 69.0811 15.6934 69.7793 15.5664L69.957 16.8613C69.153 17.001 68.3405 17.0983 67.5195 17.1533C66.7028 17.2041 65.6872 17.2295 64.4727 17.2295H63.4951V13.5732H67.2148V12.5576H63.4824V11.2627H68.7891V14.8047ZM72.2422 13.3828H73.8037V14.7158H72.2422V17.6357H70.6172V10.6279H72.2422V13.3828ZM72.2422 22.1553H70.6172V19.4639H64.46V18.1689H72.2422V22.1553ZM83.5742 22.1934H81.9492V16.3535H79.8672V15.0586H81.9492V10.6152H83.5742V22.1934ZM78.1406 14.2334C78.1406 14.8089 78.2443 15.3802 78.4517 15.9473C78.6632 16.5143 78.9806 17.0306 79.4038 17.4961C79.827 17.9616 80.3411 18.3255 80.9463 18.5879L80.083 19.832C79.4482 19.5697 78.8981 19.1803 78.4326 18.6641C77.9714 18.1478 77.6095 17.549 77.3472 16.8677C77.0848 17.5955 76.723 18.2345 76.2617 18.7847C75.8005 19.3306 75.2503 19.7389 74.6113 20.0098L73.7607 18.7656C74.3532 18.5033 74.8568 18.1287 75.2715 17.6421C75.6862 17.1554 75.9972 16.6159 76.2046 16.0234C76.4162 15.431 76.5241 14.8343 76.5283 14.2334V13.7891H74.1289V12.4941H76.5283V10.8691H78.1533V12.4941H80.4893V13.7891H78.1406V14.2334Z" fill="white"/>
<path d="M104.083 19.4212L104.359 21.6595C104.43 22.2475 103.8 22.6583 103.297 22.3537L100.329 20.5899C100.003 20.5899 99.6842 20.5687 99.3726 20.5262C99.8967 19.91 100.208 19.1308 100.208 18.2879C100.208 16.2762 98.4659 14.6471 96.3126 14.6471C95.4909 14.6471 94.733 14.8808 94.1026 15.2916C94.0813 15.1145 94.0742 14.9375 94.0742 14.7533C94.0742 11.5304 96.8721 8.91663 100.329 8.91663C103.785 8.91663 106.583 11.5304 106.583 14.7533C106.583 16.6658 105.599 18.3587 104.083 19.4212Z" stroke="white" stroke-width="1.3" stroke-linecap="round" stroke-linejoin="round"/>
<path d="M100.209 18.2879C100.209 19.1308 99.897 19.91 99.3728 20.5263C98.6716 21.3763 97.5595 21.9216 96.3128 21.9216L94.4641 23.0196C94.1524 23.2108 93.7557 22.9487 93.7982 22.5875L93.9753 21.1921C93.0262 20.5333 92.417 19.4779 92.417 18.2879C92.417 17.0412 93.0828 15.9433 94.1028 15.2917C94.7332 14.8808 95.4912 14.6471 96.3128 14.6471C98.4662 14.6471 100.209 16.2762 100.209 18.2879Z" stroke="white" stroke-width="1.3" stroke-linecap="round" stroke-linejoin="round"/>
</svg>
