<svg width="60" height="34" viewBox="0 0 60 34" fill="none" xmlns="http://www.w3.org/2000/svg">
<rect x="0.5" y="0.5" width="59" height="33" rx="16.5" fill="#F7F7F7"/>
<rect x="0.5" y="0.5" width="59" height="33" rx="16.5" stroke="#F2F2F2"/>
<path d="M24.7568 11.0576C24.7568 11.5947 24.9375 12.1245 25.2988 12.647C25.6602 13.1646 26.1924 13.6138 26.8955 13.9946C27.5986 14.3755 28.4385 14.627 29.415 14.749L28.6826 16.2578C27.54 16.0918 26.5464 15.7598 25.7017 15.2617C24.8618 14.7588 24.2173 14.1387 23.7681 13.4014C23.3237 14.1387 22.6841 14.7588 21.8491 15.2617C21.0142 15.7598 20.0303 16.0918 18.8975 16.2578L18.1504 14.749C19.1172 14.627 19.9521 14.3755 20.6553 13.9946C21.3584 13.6138 21.8906 13.1646 22.252 12.647C22.6133 12.1245 22.7939 11.5947 22.7939 11.0576V10.4131H24.7568V11.0576ZM29.8398 18.792H24.6543V23.3477H22.8086V18.792H17.6816V17.2686H29.8398V18.792ZM41.3809 17.9277H39.5205V14.7783H37.4404V13.2695H39.5205V10.0176H41.3809V17.9277ZM36.8252 18.2207C37.7725 18.2256 38.5879 18.3306 39.2715 18.5356C39.96 18.7358 40.4897 19.0288 40.8608 19.4146C41.2319 19.8003 41.4199 20.2617 41.4248 20.7988C41.4199 21.3311 41.2319 21.79 40.8608 22.1758C40.4897 22.5615 39.96 22.8545 39.2715 23.0547C38.583 23.2598 37.7676 23.3623 36.8252 23.3623C35.8828 23.3623 35.0674 23.2598 34.3789 23.0547C33.6904 22.8545 33.1606 22.5615 32.7896 22.1758C32.4233 21.79 32.2402 21.3311 32.2402 20.7988C32.2402 20.2617 32.4233 19.8003 32.7896 19.4146C33.1606 19.0288 33.688 18.7358 34.3716 18.5356C35.0601 18.3306 35.8779 18.2256 36.8252 18.2207ZM36.8252 19.6562C35.0088 19.6562 34.1006 20.0371 34.1006 20.7988C34.1006 21.1797 34.3301 21.4653 34.7891 21.6558C35.2529 21.8462 35.9316 21.9414 36.8252 21.9414C37.7188 21.9414 38.3975 21.8462 38.8613 21.6558C39.3301 21.4604 39.5645 21.1748 39.5645 20.7988C39.5645 20.0371 38.6514 19.6562 36.8252 19.6562ZM37.8359 12.3174H35.1846C35.1992 12.8545 35.3188 13.3721 35.5435 13.8701C35.7729 14.3633 36.1123 14.8076 36.5615 15.2031C37.0156 15.5986 37.5771 15.9062 38.2461 16.126L37.3232 17.5908C36.6104 17.3613 35.9951 17.0195 35.4775 16.5654C34.9648 16.1064 34.5596 15.5669 34.2617 14.9468C33.9541 15.6499 33.5293 16.2603 32.9873 16.7778C32.4453 17.2905 31.791 17.6787 31.0244 17.9424L30.0576 16.4629C30.7607 16.2285 31.3491 15.8965 31.8228 15.4668C32.3013 15.0322 32.6577 14.5439 32.8921 14.002C33.1313 13.46 33.2607 12.8984 33.2803 12.3174H30.5996V10.8232H37.8359V12.3174Z" fill="#BBBBBB"/>
</svg>
