<svg width="23" height="23" viewBox="0 0 23 23" fill="none" xmlns="http://www.w3.org/2000/svg">
<g id="Group 22">
<circle id="Ellipse 2" cx="11.5" cy="11.5" r="11.5" fill="#5AEAAE"/>
<path id="Vector" d="M7.1981 12.8088C7.32499 12.9312 7.49706 13 7.67647 13C7.85589 13 8.02795 12.9312 8.15484 12.8088L11.5041 9.57628L14.8533 12.8088C14.9809 12.9278 15.1519 12.9936 15.3293 12.9921C15.5067 12.9906 15.6764 12.9219 15.8018 12.8008C15.9273 12.6798 15.9984 12.516 16 12.3448C16.0015 12.1735 15.9333 12.0086 15.8101 11.8854L11.9825 8.1912C11.8556 8.06877 11.6835 8 11.5041 8C11.3247 8 11.1526 8.06877 11.0257 8.1912L7.1981 11.8854C7.07126 12.0079 7 12.1739 7 12.3471C7 12.5203 7.07126 12.6863 7.1981 12.8088Z" fill="white"/>
</g>
</svg>
