<svg width="338" height="437" viewBox="0 0 338 437" fill="none" xmlns="http://www.w3.org/2000/svg">
<g filter="url(#filter0_bdi_5019_16295)">
<rect x="4" y="4" width="330" height="429" rx="15" fill="url(#paint0_linear_5019_16295)" fill-opacity="0.4" shape-rendering="crispEdges"/>
<path d="M43.0625 54.4688V56.625H23.7031V54.4688H32.0469V51.0234H26V44.0859H38.1875V41.4609H25.9531V39.3516H40.7656V46.1484H28.6016V48.8906H41.2578V51.0234H34.625V54.4688H43.0625ZM60.7969 39.9609V42.3516C60.7969 45.1875 60.7969 48.1172 60.0234 52.5703L57.375 52.3359C58.1953 48.1641 58.1953 45.0938 58.1953 42.3516V42.0703H45.9844V39.9609H60.7969ZM63.2578 54.0469V56.1797H43.9453V54.0469H63.2578ZM81.8359 37.9219V53.2266H79.2109V37.9219H81.8359ZM82.4219 56.5547V58.6641H67.8203V51.6797H70.4453V56.5547H82.4219ZM70.2812 39.3047C73.4922 39.3047 75.9766 41.5312 75.9766 44.6016C75.9766 47.7422 73.4922 49.9219 70.2812 49.9219C67.0469 49.9219 64.5625 47.7422 64.5625 44.6016C64.5625 41.5312 67.0469 39.3047 70.2812 39.3047ZM70.2812 41.5781C68.4766 41.5781 67.0938 42.7734 67.1172 44.6016C67.0938 46.4766 68.4766 47.6484 70.2812 47.6484C72.0391 47.6484 73.4219 46.4766 73.4219 44.6016C73.4219 42.7734 72.0391 41.5781 70.2812 41.5781ZM101.023 37.8984V46.3359H104.281V48.4922H101.023V59.0859H98.4453V37.8984H101.023ZM96.8047 41.1562V43.2422H84.3125V41.1562H89.3281V38.2031H91.9297V41.1562H96.8047ZM90.6406 44.625C93.6875 44.625 95.9609 46.6875 95.9609 49.6172C95.9609 52.5469 93.6875 54.5859 90.6406 54.5859C87.5469 54.5859 85.2734 52.5469 85.2969 49.6172C85.2734 46.6875 87.5469 44.625 90.6406 44.625ZM90.6406 46.7578C88.9766 46.7578 87.7812 47.8828 87.7812 49.6172C87.7812 51.3516 88.9766 52.4531 90.6406 52.4297C92.2578 52.4531 93.4531 51.3516 93.4766 49.6172C93.4531 47.8828 92.2578 46.7578 90.6406 46.7578ZM115.547 39.6797V41.3672H119.812V37.9219H122.414V53.3438H119.812V48H115.547V49.8281H105.586V39.6797H115.547ZM108.188 41.7422V47.7891H112.969V41.7422H108.188ZM122.883 56.5547V58.6641H108.445V51.9141H111.094V56.5547H122.883ZM115.547 45.9141H119.812V43.5H115.547V45.9141ZM31.2734 75.9844C31.25 79.7578 33.1484 83.6016 36.4297 85.1719L34.8359 87.2578C32.5391 86.0977 30.8867 83.8594 29.9844 81.1641C29.0586 84.0469 27.3242 86.4375 24.8984 87.6562L23.3047 85.5703C26.7031 83.9531 28.6484 79.8984 28.6719 75.9844V72.6094H31.2734V75.9844ZM40.2969 70.8984V79.1953H43.5547V81.4219H40.2969V92.0859H37.6953V70.8984H40.2969ZM61.5703 70.8984V92.1094H58.9453V70.8984H61.5703ZM50.1562 72.4453C53.3438 72.4453 55.6641 75.3516 55.6875 79.9219C55.6641 84.5391 53.3438 87.4219 50.1562 87.4219C46.9453 87.4219 44.625 84.5391 44.625 79.9219C44.625 75.3516 46.9453 72.4453 50.1562 72.4453ZM50.1562 74.7891C48.3516 74.7891 47.1328 76.6875 47.1328 79.9219C47.1328 83.1797 48.3516 85.0781 50.1562 85.0781C51.9375 85.0781 53.1562 83.1797 53.1562 79.9219C53.1562 76.6875 51.9375 74.7891 50.1562 74.7891ZM81.4141 82.0078V84.0703H66.5547V72.5625H81.2266V74.6719H69.2031V77.2266H80.7344V79.2656H69.2031V82.0078H81.4141ZM83.5469 87.375V89.5078H64.1875V87.375H83.5469ZM103.766 80.5078V82.4766H84.4062V80.5078H103.766ZM101.422 83.7422V88.5703H89.2812V90.0469H102.055V91.8516H86.6797V86.8828H98.8438V85.5703H86.6562V83.7422H101.422ZM101.375 71.3672V76.1484H89.4453V77.5312H101.75V79.3125H86.8672V74.4609H98.7734V73.1719H86.7969V71.3672H101.375ZM120.578 72.8203V74.9531H113.523V84.8203C116.828 84.7969 119.16 84.6562 121.797 84.1641L122.078 86.2734C119.102 86.8594 116.547 86.9766 112.586 86.9766H110.898V72.8203H120.578ZM127.656 70.8984V92.1094H125.055V80.4844H119.453V78.3516H125.055V70.8984H127.656ZM153.047 70.8984V86.5547H150.445V81.0234H147.445V78.8672H150.445V76.8516H147.445V74.7422H150.445V70.8984H153.047ZM147.141 72.4922V74.5781H145.266V81.3281C146.062 81.2812 146.836 81.2227 147.586 81.1406L147.703 83.0391C143.695 83.6953 138.984 83.7656 135.609 83.7656L135.328 81.6094L137.719 81.5859V74.5781H135.867V72.4922H147.141ZM153.586 89.5547V91.6641H139.125V85.3359H141.75V89.5547H153.586ZM140.25 81.5625L142.758 81.4688V74.5781H140.25V81.5625ZM172.141 70.8984V79.3359H175.398V81.4922H172.141V92.0859H169.562V70.8984H172.141ZM167.922 74.1562V76.2422H155.43V74.1562H160.445V71.2031H163.047V74.1562H167.922ZM161.758 77.625C164.805 77.625 167.078 79.6875 167.078 82.6172C167.078 85.5469 164.805 87.5859 161.758 87.5859C158.664 87.5859 156.391 85.5469 156.414 82.6172C156.391 79.6875 158.664 77.625 161.758 77.625ZM161.758 79.7578C160.094 79.7578 158.898 80.8828 158.898 82.6172C158.898 84.3516 160.094 85.4531 161.758 85.4297C163.375 85.4531 164.57 84.3516 164.594 82.6172C164.57 80.8828 163.375 79.7578 161.758 79.7578ZM194.07 70.8984V92.0859H191.586V70.8984H194.07ZM189.57 71.4141V91.0781H187.109V81.3281H183.336C182.094 83.7656 180.102 85.875 177.102 87.6094L175.625 85.7578C180.02 83.168 182.023 79.8516 182.422 75.5859H176.703V73.4766H185C185 75.5273 184.754 77.4492 184.18 79.2422H187.109V71.4141H189.57ZM43.0156 112.641V114.727H23.7031V112.641H43.0156ZM40.6016 116.156V121.359H28.5547V122.906H41.1875V124.898H26V119.508H38.0469V118.078H25.9766V116.156H40.6016ZM41.2812 104.625V106.688H34.9766C35.5039 108.258 38.1172 109.629 42.1016 109.898L41.2812 111.914C37.4844 111.609 34.6133 110.332 33.3359 108.445C32.0586 110.32 29.2227 111.609 25.4609 111.914L24.6406 109.898C28.5898 109.629 31.168 108.258 31.7188 106.688H25.4609V104.625H41.2812ZM61.5938 103.898V114.633H58.9688V103.898H61.5938ZM55.1953 104.766C55.1719 110.438 51.75 113.672 45.1875 115.055L44.2734 112.945C49.5352 111.914 51.9961 109.711 52.3125 106.875H45.3984V104.766H55.1953ZM61.5938 115.5V121.031H50.2031V122.836H62.2266V124.875H47.5781V119.133H58.9688V117.539H47.5312V115.5H61.5938ZM80.4219 105.656C80.4219 108.328 83.3984 111.023 87.9219 111.609L86.8906 113.719C83.293 113.18 80.4336 111.41 79.0625 109.008C77.668 111.41 74.8203 113.18 71.2578 113.719L70.2266 111.609C74.7031 111.023 77.6797 108.328 77.6797 105.656V104.578H80.4219V105.656ZM88.6953 115.547V117.703H80.2812V125.086H77.7031V117.703H69.3828V115.547H88.6953ZM102.344 117.68C102.344 119.438 103.152 121.289 104.969 122.438C106.809 121.207 107.664 119.285 107.688 117.68V116.812H110.242V117.68C110.219 119.906 111.531 121.969 114.32 122.859L113.055 124.758C110.992 124.066 109.621 122.719 108.883 121.031C108.203 122.695 106.949 124.184 105.039 124.945C103.023 124.219 101.758 122.789 101.102 121.102C100.34 122.73 98.9922 124.055 97.0234 124.758L95.7344 122.859C98.4766 121.898 99.7891 119.742 99.8125 117.68V116.812H102.344V117.68ZM112.469 103.922V115.922H109.844V103.922H112.469ZM100.914 105.047C104.172 105.047 106.609 107.109 106.609 110.086C106.609 113.039 104.172 115.102 100.914 115.102C97.6328 115.102 95.1953 113.039 95.1953 110.086C95.1953 107.109 97.6328 105.047 100.914 105.047ZM100.914 107.25C99.0625 107.25 97.7266 108.352 97.75 110.086C97.7266 111.82 99.0625 112.945 100.914 112.945C102.742 112.945 104.055 111.82 104.055 110.086C104.055 108.352 102.742 107.25 100.914 107.25ZM120.852 105.445C123.723 105.445 125.844 107.836 126.219 111.703H130.25V103.898H132.828V125.109H130.25V113.812H126.242C125.961 117.902 123.805 120.422 120.852 120.422C117.664 120.422 115.414 117.539 115.414 112.922C115.414 108.352 117.664 105.445 120.852 105.445ZM120.852 107.789C119.094 107.789 117.898 109.688 117.922 112.922C117.898 116.18 119.094 118.078 120.852 118.078C122.609 118.078 123.781 116.18 123.805 112.922C123.781 109.688 122.609 107.789 120.852 107.789ZM154.664 120.375V122.508H135.305V120.375H139.781V115.008C138.094 114.047 137.074 112.535 137.086 110.648C137.062 107.273 140.391 105.047 144.938 105.047C149.508 105.047 152.836 107.273 152.836 110.648C152.836 112.5 151.852 113.988 150.211 114.961V120.375H154.664ZM144.938 107.109C141.773 107.109 139.617 108.445 139.641 110.648C139.617 112.828 141.773 114.188 144.938 114.188C148.102 114.188 150.281 112.828 150.281 110.648C150.281 108.445 148.102 107.109 144.938 107.109ZM142.359 120.375H147.562V115.945C146.754 116.133 145.875 116.227 144.938 116.227C144.023 116.227 143.156 116.133 142.359 115.969V120.375ZM154.844 124.68H178.844V100.68H154.844V124.68Z" fill="white"/>
<rect x="23.5" y="338.5" width="136" height="33" rx="16.5" fill="#00F16F" fill-opacity="0.4"/>
<rect x="23.5" y="338.5" width="136" height="33" rx="16.5" stroke="#03D664"/>
<path d="M43.2886 360L43.6694 357.702H41.854L41.4731 360H40.0513L40.4321 357.702H39.1626L39.4038 356.293H40.6606L40.9526 354.516H39.6958L39.9243 353.094H41.1938L41.562 350.809H42.9839L42.6157 353.094H44.4185L44.7866 350.809H46.2085L45.8403 353.094H47.0972L46.856 354.516H45.5991L45.3071 356.293H46.5767L46.3354 357.702H45.0786L44.6978 360H43.2886ZM42.0825 356.293H43.8979L44.1899 354.516H42.3745L42.0825 356.293ZM57.5913 356.077V357.397H53.0718V361.181H51.4722V357.397H47.0161V356.077H57.5913ZM52.272 349.996C54.7476 349.996 56.4868 351.024 56.4868 352.624C56.4868 354.198 54.7476 355.201 52.272 355.201C49.7964 355.201 48.0698 354.198 48.0825 352.624C48.0698 351.024 49.7964 349.996 52.272 349.996ZM52.272 351.291C50.7231 351.291 49.7329 351.773 49.7456 352.624C49.7329 353.449 50.7231 353.919 52.272 353.919C53.8335 353.919 54.811 353.449 54.811 352.624C54.811 351.773 53.8335 351.291 52.272 351.291ZM67.4507 349.615V361.193H65.8384V349.615H67.4507ZM63.8706 350.58V355.036H60.062V357.156C61.8203 357.15 63.3184 357.048 65.0132 356.775L65.1528 358.083C63.2485 358.413 61.5347 358.489 59.4272 358.489H58.3862V353.754H62.2202V351.888H58.3735V350.58H63.8706ZM74.9995 350.771V351.697C74.9868 352.789 74.9868 354.211 74.6821 356.128L73.0825 356.001C73.3428 354.325 73.3682 353.087 73.3872 352.065H69.0073V350.771H74.9995ZM72.1177 354.084V357.436C73.2539 357.391 74.4092 357.309 75.4692 357.169L75.5708 358.375C73.1968 358.781 70.5688 358.819 68.5503 358.807L68.3979 357.512C69.0454 357.505 69.769 357.505 70.5181 357.486V354.084H72.1177ZM77.6528 349.615V354.262H79.2271V355.607H77.6528V361.168H76.0151V349.615H77.6528ZM84.8716 360V361.435H78.8413V360H84.8716ZM95.2261 356.28V357.55H90.7065V361.168H89.1069V357.55H84.6509V356.28H95.2261ZM87.4946 350.06V351.393H92.3442V350.06H93.9692V355.163H85.895V350.06H87.4946ZM87.4946 353.868H92.3442V352.662H87.4946V353.868ZM101.48 351.139C101.48 352.827 102.978 354.643 105.593 355.087L104.882 356.433C102.87 356.033 101.372 354.903 100.629 353.411C99.8613 354.89 98.3633 356.026 96.3638 356.433L95.6655 355.087C98.23 354.63 99.7407 352.814 99.7534 351.139V350.301H101.48V351.139ZM105.974 358.413V359.746H95.3989V358.413H105.974ZM115.516 352.764V354.033H107.442V350.021H109.054V352.764H115.516ZM116.697 355.277V356.547H106.122V355.277H116.697ZM115.592 359.619V360.914H107.34V357.486H108.965V359.619H115.592ZM122.506 360V361.435H116.476V360H122.506ZM125.485 350.428C127.046 350.428 128.208 351.716 128.443 353.792H130.449V349.615H132.048V361.193H130.449V355.087H128.456C128.284 357.309 127.097 358.667 125.485 358.667C123.733 358.667 122.476 357.08 122.489 354.541C122.476 352.027 123.733 350.428 125.485 350.428ZM125.485 351.888C124.622 351.888 124.025 352.827 124.038 354.541C124.025 356.268 124.622 357.194 125.485 357.194C126.361 357.194 126.932 356.268 126.932 354.541C126.932 352.827 126.361 351.888 125.485 351.888ZM142.708 349.615V361.193H141.07V349.615H142.708ZM139.356 350.631V351.951H135.357V357.067C137.426 357.061 138.696 357.017 140.156 356.75L140.308 358.083C138.708 358.388 137.236 358.438 134.735 358.438H133.732V350.631H139.356Z" fill="white"/>
<rect x="23.5" y="297.5" width="108" height="33" rx="16.5" fill="#00F16F" fill-opacity="0.4"/>
<rect x="23.5" y="297.5" width="108" height="33" rx="16.5" stroke="#03D664"/>
<path d="M43.4453 319L43.8262 316.702H42.0107L41.6299 319H40.208L40.5889 316.702H39.3193L39.5605 315.293H40.8174L41.1094 313.516H39.8525L40.0811 312.094H41.3506L41.7188 309.809H43.1406L42.7725 312.094H44.5752L44.9434 309.809H46.3652L45.9971 312.094H47.2539L47.0127 313.516H45.7559L45.4639 315.293H46.7334L46.4922 316.702H45.2354L44.8545 319H43.4453ZM42.2393 315.293H44.0547L44.3467 313.516H42.5312L42.2393 315.293ZM47.5664 319L47.5537 317.616L50.8545 314.582C51.7178 313.757 52.1748 313.249 52.1748 312.525C52.1748 311.713 51.5527 311.205 50.7148 311.205C49.8516 311.205 49.293 311.751 49.293 312.627H47.4775C47.4648 310.824 48.7979 309.682 50.7402 309.682C52.708 309.682 54.0156 310.799 54.0156 312.398C54.0156 313.439 53.5078 314.303 51.6162 316.017L50.2197 317.375V317.426H54.1426V319H47.5664ZM58.5684 319.127C56.2705 319.127 54.874 317.413 54.874 314.404C54.874 311.396 56.2705 309.682 58.5684 309.682C60.8662 309.682 62.2627 311.408 62.2627 314.404C62.2627 317.426 60.8662 319.127 58.5684 319.127ZM58.5684 317.553C59.6348 317.553 60.3203 316.524 60.3076 314.404C60.3076 312.31 59.6348 311.243 58.5684 311.243C57.502 311.243 56.8291 312.31 56.8291 314.404C56.8164 316.524 57.502 317.553 58.5684 317.553ZM63.083 319L63.0703 317.616L66.3711 314.582C67.2344 313.757 67.6914 313.249 67.6914 312.525C67.6914 311.713 67.0693 311.205 66.2314 311.205C65.3682 311.205 64.8096 311.751 64.8096 312.627H62.9941C62.9814 310.824 64.3145 309.682 66.2568 309.682C68.2246 309.682 69.5322 310.799 69.5322 312.398C69.5322 313.439 69.0244 314.303 67.1328 316.017L65.7363 317.375V317.426H69.6592V319H63.083ZM70.1621 317.375V315.864L74.0469 309.809H76.4463V315.839H77.6143V317.375H76.4463V319H74.6309V317.375H70.1621ZM72.0918 315.839H74.6562V311.903H74.5674L72.0918 315.763V315.839ZM83.6143 319V320.435H77.584V319H83.6143ZM93.3975 308.615V320.168H91.8613V314.366H90.7441V319.609H89.2588V308.806H90.7441V313.071H91.8613V308.615H93.3975ZM88.04 309.948V311.256H85.3613V316.182C86.4785 316.175 87.4688 316.118 88.5859 315.915L88.7002 317.235C87.291 317.502 86.0596 317.54 84.5361 317.553H83.7363V309.948H88.04ZM104.704 314.074V315.344H94.1416V314.074H98.6357V313.084H95.4238V309.123H103.435V310.38H97.0361V311.814H103.498V313.084H100.223V314.074H104.704ZM99.3975 315.928C101.898 315.928 103.409 316.689 103.422 318.061C103.409 319.406 101.898 320.181 99.3975 320.181C96.8711 320.181 95.3477 319.406 95.3477 318.061C95.3477 316.689 96.8711 315.928 99.3975 315.928ZM99.3975 317.159C97.7979 317.159 96.9854 317.464 96.998 318.061C96.9854 318.67 97.7979 318.949 99.3975 318.949C100.959 318.949 101.784 318.67 101.797 318.061C101.784 317.464 100.959 317.159 99.3975 317.159ZM114.868 308.615V320.168H113.332V308.615H114.868ZM112.507 308.806V319.635H110.983V313.884H109.46V312.576H110.983V308.806H112.507ZM108.533 311.713C108.533 313.63 109.13 315.572 110.818 316.537L109.866 317.73C108.838 317.121 108.159 316.086 107.771 314.849C107.372 316.194 106.673 317.337 105.613 317.984L104.636 316.791C106.337 315.75 106.972 313.668 106.972 311.713V311.091H105.08V309.796H110.285V311.091H108.533V311.713Z" fill="white"/>
<rect x="23.5" y="379.5" width="147" height="33" rx="16.5" fill="#00F16F" fill-opacity="0.4"/>
<rect x="23.5" y="379.5" width="147" height="33" rx="16.5" stroke="#03D664"/>
<path d="M43.4209 401L43.8018 398.702H41.9863L41.6055 401H40.1836L40.5645 398.702H39.2949L39.5361 397.293H40.793L41.085 395.516H39.8281L40.0566 394.094H41.3262L41.6943 391.809H43.1162L42.748 394.094H44.5508L44.9189 391.809H46.3408L45.9727 394.094H47.2295L46.9883 395.516H45.7314L45.4395 397.293H46.709L46.4678 398.702H45.2109L44.8301 401H43.4209ZM42.2148 397.293H44.0303L44.3223 395.516H42.5068L42.2148 397.293ZM57.7363 399.489V400.822H47.1611V399.489H51.6172V397.128H48.2783V391.466H56.5557V397.128H53.2295V399.489H57.7363ZM49.8779 392.761V395.858H54.9561V392.761H49.8779ZM68.459 396.315V397.61H57.8965V396.315H68.459ZM67.3037 394.081V395.376H59.1787V391.034H67.1895V392.329H60.791V394.081H67.3037ZM67.3672 400.657V401.952H59.166V398.512H60.7656V400.657H67.3672ZM74.2686 401V402.435H68.2383V401H74.2686ZM83.7979 390.615V397.471H82.1855V394.741H80.3828V393.434H82.1855V390.615H83.7979ZM79.8496 397.725C82.3125 397.737 83.8232 398.55 83.8359 399.959C83.8232 401.355 82.3125 402.181 79.8496 402.181C77.3867 402.181 75.876 401.355 75.876 399.959C75.876 398.55 77.3867 397.737 79.8496 397.725ZM79.8496 398.969C78.3135 398.969 77.4883 399.286 77.4883 399.959C77.4883 400.619 78.3135 400.949 79.8496 400.949C81.3857 400.949 82.2236 400.619 82.2236 399.959C82.2236 399.286 81.3857 398.969 79.8496 398.969ZM80.7256 391.313V392.608H78.4277C78.4658 393.954 79.2783 395.312 81.0811 395.909L80.2812 397.179C79.0054 396.766 78.1294 395.928 77.6279 394.881C77.1138 396.062 76.1934 397.014 74.8223 397.483L73.9844 396.201C75.8823 395.566 76.7329 394.056 76.7773 392.608H74.4541V391.313H80.7256ZM95.3711 399.502V400.822H84.7959V399.502H89.252V397.369H85.9131V391.352H87.5381V393.142H92.5781V391.352H94.1904V397.369H90.8643V399.502H95.3711ZM87.5381 396.074H92.5781V394.437H87.5381V396.074ZM104.646 390.615V395.046H106.284V396.379H104.646V402.143H103.021V390.615H104.646ZM101.562 391.796C101.549 395.249 100.203 398.245 96.3184 400.149L95.4043 398.905C98.1401 397.534 99.6064 395.693 99.9111 393.116H96.0645V391.796H101.562ZM111.903 401V402.435H105.873V401H111.903ZM121.661 390.615V402.168H120.1V396.392H119.021V401.609H117.497V390.806H119.021V395.084H120.1V390.615H121.661ZM113.79 391.897V397.928C114.717 397.909 115.732 397.826 116.85 397.61L117.015 399.007C115.466 399.273 114.146 399.35 112.952 399.35H112.165V391.897H113.79ZM131.774 400.67V401.965H123.7V398.613H125.325V400.67H131.774ZM132.968 396.607V397.902H122.431V396.607H126.887V394.97H128.486V396.607H132.968ZM128.512 391.301C128.512 392.735 129.781 394.081 132.384 394.411L131.762 395.681C129.813 395.37 128.397 394.525 127.674 393.332C126.944 394.519 125.547 395.389 123.624 395.681L122.989 394.411C125.541 394.056 126.861 392.659 126.861 391.301V390.945H128.512V391.301ZM142.332 390.615V393.929H143.894V395.274H142.332V399.032H140.707V390.615H142.332ZM142.751 400.67V401.965H134.842V398.144H136.454V400.67H142.751ZM136.416 391.364C138.181 391.364 139.564 392.583 139.564 394.297C139.564 395.985 138.181 397.229 136.416 397.229C134.639 397.229 133.242 395.985 133.242 394.297C133.242 392.583 134.639 391.364 136.416 391.364ZM136.416 392.773C135.54 392.761 134.829 393.332 134.842 394.297C134.829 395.236 135.54 395.82 136.416 395.82C137.305 395.82 137.978 395.236 137.99 394.297C137.978 393.332 137.305 392.761 136.416 392.773ZM153.918 390.615V402.168H152.369V390.615H153.918ZM151.506 390.78V401.635H149.982V396.176H149.056C148.903 398.448 147.938 399.819 146.517 399.819C144.993 399.819 144.003 398.22 144.003 395.617C144.003 393.027 144.993 391.44 146.517 391.44C147.907 391.44 148.859 392.735 149.043 394.894H149.982V390.78H151.506ZM146.517 392.964C145.869 392.964 145.488 393.853 145.501 395.617C145.488 397.395 145.869 398.271 146.517 398.258C147.177 398.271 147.57 397.395 147.57 395.617C147.57 393.853 147.177 392.964 146.517 392.964Z" fill="white"/>
</g>
<defs>
<filter id="filter0_bdi_5019_16295" x="-16" y="-16" width="370" height="469" filterUnits="userSpaceOnUse" color-interpolation-filters="sRGB">
<feFlood flood-opacity="0" result="BackgroundImageFix"/>
<feGaussianBlur in="BackgroundImageFix" stdDeviation="10"/>
<feComposite in2="SourceAlpha" operator="in" result="effect1_backgroundBlur_5019_16295"/>
<feColorMatrix in="SourceAlpha" type="matrix" values="0 0 0 0 0 0 0 0 0 0 0 0 0 0 0 0 0 0 127 0" result="hardAlpha"/>
<feOffset/>
<feGaussianBlur stdDeviation="2"/>
<feComposite in2="hardAlpha" operator="out"/>
<feColorMatrix type="matrix" values="0 0 0 0 0 0 0 0 0 0 0 0 0 0 0 0 0 0 0.1 0"/>
<feBlend mode="normal" in2="effect1_backgroundBlur_5019_16295" result="effect2_dropShadow_5019_16295"/>
<feBlend mode="normal" in="SourceGraphic" in2="effect2_dropShadow_5019_16295" result="shape"/>
<feColorMatrix in="SourceAlpha" type="matrix" values="0 0 0 0 0 0 0 0 0 0 0 0 0 0 0 0 0 0 127 0" result="hardAlpha"/>
<feOffset/>
<feGaussianBlur stdDeviation="2"/>
<feComposite in2="hardAlpha" operator="arithmetic" k2="-1" k3="1"/>
<feColorMatrix type="matrix" values="0 0 0 0 1 0 0 0 0 1 0 0 0 0 1 0 0 0 1 0"/>
<feBlend mode="normal" in2="shape" result="effect3_innerShadow_5019_16295"/>
</filter>
<linearGradient id="paint0_linear_5019_16295" x1="84" y1="-14.5" x2="329" y2="451.5" gradientUnits="userSpaceOnUse">
<stop stop-color="#43FF99"/>
<stop offset="1" stop-color="#F7F7F7"/>
</linearGradient>
</defs>
</svg>
