<svg width="43" height="43" viewBox="0 0 43 43" fill="none" xmlns="http://www.w3.org/2000/svg">
<path d="M28.6663 16.1072V36.4606C28.6663 39.0585 26.803 40.1514 24.5276 38.8972L17.4864 34.9735C16.7339 34.5614 15.5155 34.5614 14.763 34.9735L7.72175 38.8972C5.44634 40.1514 3.58301 39.0585 3.58301 36.4606V16.1072C3.58301 13.0435 6.09131 10.5352 9.15506 10.5352H23.0943C26.158 10.5352 28.6663 13.0435 28.6663 16.1072Z" stroke="#03D664" stroke-width="1.5" stroke-linecap="round" stroke-linejoin="round"/>
<path d="M39.4163 9.15555V29.5089C39.4163 32.1068 37.553 33.1997 35.2776 31.9456L28.6663 28.2547V16.1072C28.6663 13.0435 26.158 10.5352 23.0943 10.5352H14.333V9.15555C14.333 6.0918 16.8413 3.5835 19.9051 3.5835H33.8443C36.908 3.5835 39.4163 6.0918 39.4163 9.15555Z" stroke="#03D664" stroke-width="1.5" stroke-linecap="round" stroke-linejoin="round"/>
<path d="M12.542 21.5H19.7087" stroke="#03D664" stroke-width="1.5" stroke-linecap="round" stroke-linejoin="round"/>
<path d="M16.125 25.0832V17.9165" stroke="#03D664" stroke-width="1.5" stroke-linecap="round" stroke-linejoin="round"/>
</svg>
