<svg width="62" height="62" viewBox="0 0 62 62" fill="none" xmlns="http://www.w3.org/2000/svg">
<circle cx="31" cy="31" r="31" fill="#07FB77"/>
<g clip-path="url(#clip0_4483_37343)">
<path d="M33.0504 33.4607L27.6377 34.435L28.5398 28.9501L38.8781 18.6479C39.0458 18.4788 39.2453 18.3446 39.4652 18.253C39.6851 18.1614 39.9209 18.1143 40.1591 18.1143C40.3973 18.1143 40.6331 18.1614 40.8529 18.253C41.0728 18.3446 41.2724 18.4788 41.4401 18.6479L43.3526 20.5604C43.5217 20.7282 43.6559 20.9277 43.7475 21.1476C43.8391 21.3674 43.8863 21.6033 43.8863 21.8414C43.8863 22.0796 43.8391 22.3154 43.7475 22.5353C43.6559 22.7552 43.5217 22.9547 43.3526 23.1224L33.0504 33.4607Z" stroke="white" stroke-width="2.2963" stroke-linecap="round" stroke-linejoin="round"/>
<path d="M41.1696 34.3628V39.7755C41.1696 40.254 40.9795 40.7129 40.6411 41.0513C40.3028 41.3896 39.8439 41.5797 39.3653 41.5797H22.2251C21.7466 41.5797 21.2877 41.3896 20.9493 41.0513C20.611 40.7129 20.4209 40.254 20.4209 39.7755V22.6353C20.4209 22.1568 20.611 21.6979 20.9493 21.3595C21.2877 21.0211 21.7466 20.8311 22.2251 20.8311H27.6378" stroke="white" stroke-width="2.2963" stroke-linecap="round" stroke-linejoin="round"/>
</g>
<defs>
<clipPath id="clip0_4483_37343">
<rect width="25.2593" height="25.2593" fill="white" transform="translate(19.5186 17.2227)"/>
</clipPath>
</defs>
</svg>
