<svg width="20" height="19" viewBox="0 0 20 19" fill="none" xmlns="http://www.w3.org/2000/svg">
<path fill-rule="evenodd" clip-rule="evenodd" d="M9.88026 0.0400391C4.70886 0.0400391 0.520264 4.33458 0.520264 9.63679C0.520264 13.8833 3.19956 17.4701 6.92016 18.7417C7.38816 18.8257 7.56366 18.5378 7.56366 18.2859C7.56366 18.0579 7.55196 17.3022 7.55196 16.4985C5.20026 16.9423 4.59186 15.9107 4.40466 15.3708C4.29936 15.0949 3.84306 14.2432 3.44526 14.0153C3.11766 13.8354 2.64966 13.3915 3.43356 13.3795C4.17066 13.3675 4.69716 14.0753 4.87266 14.3632C5.71506 15.8147 7.06056 15.4068 7.59876 15.1549C7.68066 14.5311 7.92636 14.1113 8.19546 13.8714C6.11286 13.6314 3.93666 12.8037 3.93666 9.13296C3.93666 8.08931 4.29936 7.22561 4.89606 6.55383C4.80246 6.31391 4.47486 5.33025 4.98966 4.01069C4.98966 4.01069 5.77356 3.75878 7.56366 4.99436C8.31246 4.77843 9.10806 4.67047 9.90366 4.67047C10.6993 4.67047 11.4949 4.77843 12.2437 4.99436C14.0338 3.74678 14.8177 4.01069 14.8177 4.01069C15.3325 5.33025 15.0049 6.31391 14.9113 6.55383C15.508 7.22561 15.8707 8.07732 15.8707 9.13296C15.8707 12.8157 13.6828 13.6314 11.6002 13.8714C11.9395 14.1713 12.232 14.7471 12.232 15.6468C12.232 16.9303 12.2203 17.962 12.2203 18.2859C12.2203 18.5378 12.3958 18.8377 12.8638 18.7417C16.561 17.4701 19.2403 13.8714 19.2403 9.63679C19.2403 4.33458 15.0517 0.0400391 9.88026 0.0400391Z" fill="#9B9B9B"/>
</svg>
