<svg width="338" height="51" viewBox="0 0 338 51" fill="none" xmlns="http://www.w3.org/2000/svg">
<g filter="url(#filter0_bdi_4425_27067)">
<rect x="4" y="4" width="330" height="43" rx="15" fill="url(#paint0_linear_4425_27067)" fill-opacity="0.4" shape-rendering="crispEdges"/>
<path d="M24 30.91H37V17.91H24V30.91ZM39.5674 24.3633L40.6338 20.8086H41.8398L41.1797 24.3633H39.5674ZM52.6895 28.6162V29.7715H42.2031V28.6162H46.7354V26.2422H48.1318V28.6162H52.6895ZM51.75 21.3164V22.459H48.1699C48.2651 23.8872 49.7568 25.2012 52.2324 25.5312L51.7119 26.6357C49.7251 26.3564 48.1953 25.4741 47.4336 24.2109C46.6719 25.4741 45.1548 26.3564 43.168 26.6357L42.6348 25.5312C45.123 25.2012 46.6084 23.8872 46.7227 22.459H43.1299V21.3164H46.7354V19.8311H48.1318V21.3164H51.75ZM63.4121 25.8613V27.0039H52.9258V25.8613H57.4707V24.9092H54.2588V21.8623H60.708V21.0117H54.2207V19.9072H62.1172V22.8906H55.6553V23.8047H62.3457V24.9092H58.8672V25.8613H63.4121ZM62.1807 27.7275V31.0537H60.7588V28.8447H54.0938V27.7275H62.1807ZM67.3936 20.4531C69.209 20.4404 70.542 21.5957 70.5547 23.2207C70.542 24.8584 69.209 26.001 67.3936 26.001C65.5908 26.001 64.2451 24.8584 64.2451 23.2207C64.2451 21.5957 65.5908 20.4404 67.3936 20.4531ZM67.3936 21.6719C66.3906 21.6719 65.6416 22.2686 65.6416 23.2207C65.6416 24.1855 66.3906 24.7695 67.3936 24.7695C68.4092 24.7695 69.1709 24.1855 69.1709 23.2207C69.1709 22.2686 68.4092 21.6719 67.3936 21.6719ZM73.2334 19.6533V31.1426H71.8242V19.6533H73.2334ZM63.7246 27.5879C65.7939 27.5879 68.6631 27.5625 71.1387 27.207L71.2529 28.2354C68.6758 28.7305 65.9209 28.7432 63.9023 28.7432L63.7246 27.5879ZM86.0459 26.7881V30.9902H78.6318V26.7881H86.0459ZM80.0283 27.918V29.8477H84.6494V27.918H80.0283ZM86.0459 19.6533V22.2686H87.6455V23.4492H86.0459V26.2295H84.6367V19.6533H86.0459ZM78.7842 20.25V21.7988H81.4629V20.25H82.8594V25.6328H77.3877V20.25H78.7842ZM78.7842 24.4902H81.4629V22.9033H78.7842V24.4902ZM89.2529 20.8086V24.1855H88.0215V20.8086H89.2529ZM101.964 19.6533V25.8105H100.542V19.6533H101.964ZM95.7686 26.3438V27.5244H100.555V26.3438H101.964V30.9902H94.3721V26.3438H95.7686ZM95.7686 29.8477H100.555V28.6289H95.7686V29.8477ZM95.7051 20.1611C97.4697 20.1484 98.79 21.2529 98.79 22.8525C98.79 24.4141 97.4697 25.5186 95.7051 25.5186C93.9277 25.5186 92.6074 24.4141 92.6074 22.8525C92.6074 21.2529 93.9277 20.1484 95.7051 20.1611ZM95.7051 21.3418C94.7021 21.3418 93.9785 21.9258 93.9912 22.8525C93.9785 23.7666 94.7021 24.3506 95.7051 24.3633C96.6953 24.3506 97.4062 23.7666 97.4062 22.8525C97.4062 21.9258 96.6953 21.3418 95.7051 21.3418ZM107.253 21.7227C107.253 23.1318 108.167 24.4521 109.957 24.998L109.284 26.1025C107.996 25.7026 107.082 24.8838 106.58 23.8428C106.072 25.0488 105.101 26.0073 103.724 26.4707L103.013 25.3535C104.866 24.7441 105.831 23.2588 105.831 21.7354V21.5957H103.406V20.4531H109.64V21.5957H107.253V21.7227ZM112.191 19.6533V22.4082H113.791V23.5635H112.191V26.4961H110.782V19.6533H112.191ZM108.459 26.75C110.833 26.75 112.293 27.5498 112.306 28.9209C112.293 30.3047 110.833 31.1172 108.459 31.1172C106.06 31.1172 104.574 30.3047 104.574 28.9209C104.574 27.5498 106.06 26.75 108.459 26.75ZM108.459 27.8545C106.885 27.8545 105.983 28.2227 105.983 28.9209C105.983 29.6318 106.885 30.0127 108.459 30.0127C110.033 30.0127 110.909 29.6318 110.909 28.9209C110.909 28.2227 110.033 27.8545 108.459 27.8545ZM121.627 26.8262C124.115 26.8389 125.689 27.626 125.702 28.9844C125.689 30.3174 124.115 31.1172 121.627 31.1172C119.151 31.1172 117.564 30.3174 117.564 28.9844C117.564 27.626 119.151 26.8389 121.627 26.8262ZM121.627 27.8926C119.977 27.8926 118.974 28.2861 118.986 28.9844C118.974 29.6572 119.977 30.0254 121.627 30.0254C123.29 30.0254 124.293 29.6572 124.306 28.9844C124.293 28.2861 123.29 27.8926 121.627 27.8926ZM125.626 20.1992V21.1514C125.626 22.0527 125.626 23.0176 125.309 24.1982L123.912 24.0713C124.198 22.9541 124.217 22.1479 124.217 21.3164H117.679V20.1992H125.626ZM126.896 24.8584V26.001H116.485V24.8584H120.522V22.7764H121.919V24.8584H126.896ZM131.524 22.916C131.524 24.7949 132.629 26.7754 134.482 27.5498L133.708 28.667C132.35 28.083 131.359 26.877 130.839 25.417C130.306 26.9912 129.303 28.3115 127.957 28.9463L127.145 27.8418C128.96 27.0039 130.09 24.8711 130.09 22.916V21.9512H127.563V20.7832H134.038V21.9512H131.524V22.916ZM136.742 19.6533V31.1299H135.32V19.6533H136.742Z" fill="white"/>
</g>
<defs>
<filter id="filter0_bdi_4425_27067" x="-16" y="-16" width="370" height="83" filterUnits="userSpaceOnUse" color-interpolation-filters="sRGB">
<feFlood flood-opacity="0" result="BackgroundImageFix"/>
<feGaussianBlur in="BackgroundImageFix" stdDeviation="10"/>
<feComposite in2="SourceAlpha" operator="in" result="effect1_backgroundBlur_4425_27067"/>
<feColorMatrix in="SourceAlpha" type="matrix" values="0 0 0 0 0 0 0 0 0 0 0 0 0 0 0 0 0 0 127 0" result="hardAlpha"/>
<feOffset/>
<feGaussianBlur stdDeviation="2"/>
<feComposite in2="hardAlpha" operator="out"/>
<feColorMatrix type="matrix" values="0 0 0 0 0 0 0 0 0 0 0 0 0 0 0 0 0 0 0.1 0"/>
<feBlend mode="normal" in2="effect1_backgroundBlur_4425_27067" result="effect2_dropShadow_4425_27067"/>
<feBlend mode="normal" in="SourceGraphic" in2="effect2_dropShadow_4425_27067" result="shape"/>
<feColorMatrix in="SourceAlpha" type="matrix" values="0 0 0 0 0 0 0 0 0 0 0 0 0 0 0 0 0 0 127 0" result="hardAlpha"/>
<feOffset/>
<feGaussianBlur stdDeviation="2"/>
<feComposite in2="hardAlpha" operator="arithmetic" k2="-1" k3="1"/>
<feColorMatrix type="matrix" values="0 0 0 0 1 0 0 0 0 1 0 0 0 0 1 0 0 0 1 0"/>
<feBlend mode="normal" in2="shape" result="effect3_innerShadow_4425_27067"/>
</filter>
<linearGradient id="paint0_linear_4425_27067" x1="84" y1="2.14569" x2="87.1331" y2="61.6001" gradientUnits="userSpaceOnUse">
<stop stop-color="#43FF99"/>
<stop offset="1" stop-color="#F7F7F7"/>
</linearGradient>
</defs>
</svg>
