<svg width="148" height="116" viewBox="0 0 148 116" fill="none" xmlns="http://www.w3.org/2000/svg">
<rect x="0.5" y="41.5" width="136" height="33" rx="16.5" fill="#00F16F" fill-opacity="0.4"/>
<rect x="0.5" y="41.5" width="136" height="33" rx="16.5" stroke="#03D664"/>
<path d="M20.2886 63L20.6694 60.7021H18.854L18.4731 63H17.0513L17.4321 60.7021H16.1626L16.4038 59.293H17.6606L17.9526 57.5156H16.6958L16.9243 56.0938H18.1938L18.562 53.8086H19.9839L19.6157 56.0938H21.4185L21.7866 53.8086H23.2085L22.8403 56.0938H24.0972L23.856 57.5156H22.5991L22.3071 59.293H23.5767L23.3354 60.7021H22.0786L21.6978 63H20.2886ZM19.0825 59.293H20.8979L21.1899 57.5156H19.3745L19.0825 59.293ZM34.5913 59.0771V60.3975H30.0718V64.1807H28.4722V60.3975H24.0161V59.0771H34.5913ZM29.272 52.9961C31.7476 52.9961 33.4868 54.0244 33.4868 55.624C33.4868 57.1982 31.7476 58.2012 29.272 58.2012C26.7964 58.2012 25.0698 57.1982 25.0825 55.624C25.0698 54.0244 26.7964 52.9961 29.272 52.9961ZM29.272 54.291C27.7231 54.291 26.7329 54.7734 26.7456 55.624C26.7329 56.4492 27.7231 56.9189 29.272 56.9189C30.8335 56.9189 31.811 56.4492 31.811 55.624C31.811 54.7734 30.8335 54.291 29.272 54.291ZM44.4507 52.6152V64.1934H42.8384V52.6152H44.4507ZM40.8706 53.5801V58.0361H37.062V60.1562C38.8203 60.1499 40.3184 60.0483 42.0132 59.7754L42.1528 61.083C40.2485 61.4131 38.5347 61.4893 36.4272 61.4893H35.3862V56.7539H39.2202V54.8877H35.3735V53.5801H40.8706ZM51.9995 53.7705V54.6973C51.9868 55.7891 51.9868 57.2109 51.6821 59.1279L50.0825 59.001C50.3428 57.3252 50.3682 56.0874 50.3872 55.0654H46.0073V53.7705H51.9995ZM49.1177 57.084V60.4355C50.2539 60.3911 51.4092 60.3086 52.4692 60.1689L52.5708 61.375C50.1968 61.7812 47.5688 61.8193 45.5503 61.8066L45.3979 60.5117C46.0454 60.5054 46.769 60.5054 47.5181 60.4863V57.084H49.1177ZM54.6528 52.6152V57.2617H56.2271V58.6074H54.6528V64.168H53.0151V52.6152H54.6528ZM61.8716 63V64.4346H55.8413V63H61.8716ZM72.2261 59.2803V60.5498H67.7065V64.168H66.1069V60.5498H61.6509V59.2803H72.2261ZM64.4946 53.0596V54.3926H69.3442V53.0596H70.9692V58.1631H62.895V53.0596H64.4946ZM64.4946 56.8682H69.3442V55.6621H64.4946V56.8682ZM78.48 54.1387C78.48 55.8271 79.978 57.6426 82.5933 58.0869L81.8823 59.4326C79.8701 59.0327 78.3721 57.9028 77.6294 56.4111C76.8613 57.8901 75.3633 59.0264 73.3638 59.4326L72.6655 58.0869C75.23 57.6299 76.7407 55.8145 76.7534 54.1387V53.3008H78.48V54.1387ZM82.9741 61.4131V62.7461H72.3989V61.4131H82.9741ZM92.5161 55.7637V57.0332H84.4419V53.0215H86.0542V55.7637H92.5161ZM93.6968 58.2773V59.5469H83.1216V58.2773H93.6968ZM92.5923 62.6191V63.9141H84.3403V60.4863H85.9653V62.6191H92.5923ZM99.5063 63V64.4346H93.4761V63H99.5063ZM102.485 53.4277C104.046 53.4277 105.208 54.7163 105.443 56.792H107.449V52.6152H109.048V64.1934H107.449V58.0869H105.456C105.284 60.3086 104.097 61.667 102.485 61.667C100.733 61.667 99.4761 60.0801 99.4888 57.541C99.4761 55.0273 100.733 53.4277 102.485 53.4277ZM102.485 54.8877C101.622 54.8877 101.025 55.8271 101.038 57.541C101.025 59.2676 101.622 60.1943 102.485 60.1943C103.361 60.1943 103.932 59.2676 103.932 57.541C103.932 55.8271 103.361 54.8877 102.485 54.8877ZM119.708 52.6152V64.1934H118.07V52.6152H119.708ZM116.356 53.6309V54.9512H112.357V60.0674C114.426 60.061 115.696 60.0166 117.156 59.75L117.308 61.083C115.708 61.3877 114.236 61.4385 111.735 61.4385H110.732V53.6309H116.356Z" fill="white"/>
<rect x="0.5" y="0.5" width="108" height="33" rx="16.5" fill="#00F16F" fill-opacity="0.4"/>
<rect x="0.5" y="0.5" width="108" height="33" rx="16.5" stroke="#03D664"/>
<path d="M20.4453 22L20.8262 19.7021H19.0107L18.6299 22H17.208L17.5889 19.7021H16.3193L16.5605 18.293H17.8174L18.1094 16.5156H16.8525L17.0811 15.0938H18.3506L18.7188 12.8086H20.1406L19.7725 15.0938H21.5752L21.9434 12.8086H23.3652L22.9971 15.0938H24.2539L24.0127 16.5156H22.7559L22.4639 18.293H23.7334L23.4922 19.7021H22.2354L21.8545 22H20.4453ZM19.2393 18.293H21.0547L21.3467 16.5156H19.5312L19.2393 18.293ZM24.5664 22L24.5537 20.6162L27.8545 17.582C28.7178 16.7568 29.1748 16.249 29.1748 15.5254C29.1748 14.7129 28.5527 14.2051 27.7148 14.2051C26.8516 14.2051 26.293 14.751 26.293 15.627H24.4775C24.4648 13.8242 25.7979 12.6816 27.7402 12.6816C29.708 12.6816 31.0156 13.7988 31.0156 15.3984C31.0156 16.4395 30.5078 17.3027 28.6162 19.0166L27.2197 20.375V20.4258H31.1426V22H24.5664ZM35.5684 22.127C33.2705 22.127 31.874 20.4131 31.874 17.4043C31.874 14.3955 33.2705 12.6816 35.5684 12.6816C37.8662 12.6816 39.2627 14.4082 39.2627 17.4043C39.2627 20.4258 37.8662 22.127 35.5684 22.127ZM35.5684 20.5527C36.6348 20.5527 37.3203 19.5244 37.3076 17.4043C37.3076 15.3096 36.6348 14.2432 35.5684 14.2432C34.502 14.2432 33.8291 15.3096 33.8291 17.4043C33.8164 19.5244 34.502 20.5527 35.5684 20.5527ZM40.083 22L40.0703 20.6162L43.3711 17.582C44.2344 16.7568 44.6914 16.249 44.6914 15.5254C44.6914 14.7129 44.0693 14.2051 43.2314 14.2051C42.3682 14.2051 41.8096 14.751 41.8096 15.627H39.9941C39.9814 13.8242 41.3145 12.6816 43.2568 12.6816C45.2246 12.6816 46.5322 13.7988 46.5322 15.3984C46.5322 16.4395 46.0244 17.3027 44.1328 19.0166L42.7363 20.375V20.4258H46.6592V22H40.083ZM47.1621 20.375V18.8643L51.0469 12.8086H53.4463V18.8389H54.6143V20.375H53.4463V22H51.6309V20.375H47.1621ZM49.0918 18.8389H51.6562V14.9033H51.5674L49.0918 18.7627V18.8389ZM60.6143 22V23.4346H54.584V22H60.6143ZM70.3975 11.6152V23.168H68.8613V17.3662H67.7441V22.6094H66.2588V11.8057H67.7441V16.0713H68.8613V11.6152H70.3975ZM65.04 12.9482V14.2559H62.3613V19.1816C63.4785 19.1753 64.4688 19.1182 65.5859 18.915L65.7002 20.2354C64.291 20.502 63.0596 20.54 61.5361 20.5527H60.7363V12.9482H65.04ZM81.7041 17.0742V18.3438H71.1416V17.0742H75.6357V16.084H72.4238V12.123H80.4346V13.3799H74.0361V14.8145H80.498V16.084H77.2227V17.0742H81.7041ZM76.3975 18.9277C78.8984 18.9277 80.4092 19.6895 80.4219 21.0605C80.4092 22.4062 78.8984 23.1807 76.3975 23.1807C73.8711 23.1807 72.3477 22.4062 72.3477 21.0605C72.3477 19.6895 73.8711 18.9277 76.3975 18.9277ZM76.3975 20.1592C74.7979 20.1592 73.9854 20.4639 73.998 21.0605C73.9854 21.6699 74.7979 21.9492 76.3975 21.9492C77.959 21.9492 78.7842 21.6699 78.7969 21.0605C78.7842 20.4639 77.959 20.1592 76.3975 20.1592ZM91.8682 11.6152V23.168H90.332V11.6152H91.8682ZM89.5068 11.8057V22.6348H87.9834V16.8838H86.46V15.5762H87.9834V11.8057H89.5068ZM85.5332 14.7129C85.5332 16.6299 86.1299 18.5723 87.8184 19.5371L86.8662 20.7305C85.8379 20.1211 85.1587 19.0864 84.7715 17.8486C84.3716 19.1943 83.6733 20.3369 82.6133 20.9844L81.6357 19.791C83.3369 18.75 83.9717 16.668 83.9717 14.7129V14.0908H82.0801V12.7959H87.2852V14.0908H85.5332V14.7129Z" fill="white"/>
<rect x="0.5" y="82.5" width="147" height="33" rx="16.5" fill="#00F16F" fill-opacity="0.4"/>
<rect x="0.5" y="82.5" width="147" height="33" rx="16.5" stroke="#03D664"/>
<path d="M20.4209 104L20.8018 101.702H18.9863L18.6055 104H17.1836L17.5645 101.702H16.2949L16.5361 100.293H17.793L18.085 98.5156H16.8281L17.0566 97.0938H18.3262L18.6943 94.8086H20.1162L19.748 97.0938H21.5508L21.9189 94.8086H23.3408L22.9727 97.0938H24.2295L23.9883 98.5156H22.7314L22.4395 100.293H23.709L23.4678 101.702H22.2109L21.8301 104H20.4209ZM19.2148 100.293H21.0303L21.3223 98.5156H19.5068L19.2148 100.293ZM34.7363 102.489V103.822H24.1611V102.489H28.6172V100.128H25.2783V94.4658H33.5557V100.128H30.2295V102.489H34.7363ZM26.8779 95.7607V98.8584H31.9561V95.7607H26.8779ZM45.459 99.3154V100.61H34.8965V99.3154H45.459ZM44.3037 97.0811V98.376H36.1787V94.0342H44.1895V95.3291H37.791V97.0811H44.3037ZM44.3672 103.657V104.952H36.166V101.512H37.7656V103.657H44.3672ZM51.2686 104V105.435H45.2383V104H51.2686ZM60.7979 93.6152V100.471H59.1855V97.7412H57.3828V96.4336H59.1855V93.6152H60.7979ZM56.8496 100.725C59.3125 100.737 60.8232 101.55 60.8359 102.959C60.8232 104.355 59.3125 105.181 56.8496 105.181C54.3867 105.181 52.876 104.355 52.876 102.959C52.876 101.55 54.3867 100.737 56.8496 100.725ZM56.8496 101.969C55.3135 101.969 54.4883 102.286 54.4883 102.959C54.4883 103.619 55.3135 103.949 56.8496 103.949C58.3857 103.949 59.2236 103.619 59.2236 102.959C59.2236 102.286 58.3857 101.969 56.8496 101.969ZM57.7256 94.3135V95.6084H55.4277C55.4658 96.9541 56.2783 98.3125 58.0811 98.9092L57.2812 100.179C56.0054 99.7661 55.1294 98.9282 54.6279 97.8809C54.1138 99.0615 53.1934 100.014 51.8223 100.483L50.9844 99.2012C52.8823 98.5664 53.7329 97.0557 53.7773 95.6084H51.4541V94.3135H57.7256ZM72.3711 102.502V103.822H61.7959V102.502H66.252V100.369H62.9131V94.3516H64.5381V96.1416H69.5781V94.3516H71.1904V100.369H67.8643V102.502H72.3711ZM64.5381 99.0742H69.5781V97.4365H64.5381V99.0742ZM81.6465 93.6152V98.0459H83.2842V99.3789H81.6465V105.143H80.0215V93.6152H81.6465ZM78.5615 94.7959C78.5488 98.249 77.2031 101.245 73.3184 103.149L72.4043 101.905C75.1401 100.534 76.6064 98.6934 76.9111 96.1162H73.0645V94.7959H78.5615ZM88.9033 104V105.435H82.873V104H88.9033ZM98.6611 93.6152V105.168H97.0996V99.3916H96.0205V104.609H94.4971V93.8057H96.0205V98.084H97.0996V93.6152H98.6611ZM90.79 94.8975V100.928C91.7168 100.909 92.7324 100.826 93.8496 100.61L94.0146 102.007C92.4658 102.273 91.1455 102.35 89.9521 102.35H89.165V94.8975H90.79ZM108.774 103.67V104.965H100.7V101.613H102.325V103.67H108.774ZM109.968 99.6074V100.902H99.4307V99.6074H103.887V97.9697H105.486V99.6074H109.968ZM105.512 94.3008C105.512 95.7354 106.781 97.0811 109.384 97.4111L108.762 98.6807C106.813 98.3696 105.397 97.5254 104.674 96.332C103.944 97.519 102.547 98.3887 100.624 98.6807L99.9893 97.4111C102.541 97.0557 103.861 95.6592 103.861 94.3008V93.9453H105.512V94.3008ZM119.332 93.6152V96.9287H120.894V98.2744H119.332V102.032H117.707V93.6152H119.332ZM119.751 103.67V104.965H111.842V101.144H113.454V103.67H119.751ZM113.416 94.3643C115.181 94.3643 116.564 95.583 116.564 97.2969C116.564 98.9854 115.181 100.229 113.416 100.229C111.639 100.229 110.242 98.9854 110.242 97.2969C110.242 95.583 111.639 94.3643 113.416 94.3643ZM113.416 95.7734C112.54 95.7607 111.829 96.332 111.842 97.2969C111.829 98.2363 112.54 98.8203 113.416 98.8203C114.305 98.8203 114.978 98.2363 114.99 97.2969C114.978 96.332 114.305 95.7607 113.416 95.7734ZM130.918 93.6152V105.168H129.369V93.6152H130.918ZM128.506 93.7803V104.635H126.982V99.1758H126.056C125.903 101.448 124.938 102.819 123.517 102.819C121.993 102.819 121.003 101.22 121.003 98.6172C121.003 96.0273 121.993 94.4404 123.517 94.4404C124.907 94.4404 125.859 95.7354 126.043 97.8936H126.982V93.7803H128.506ZM123.517 95.9639C122.869 95.9639 122.488 96.8525 122.501 98.6172C122.488 100.395 122.869 101.271 123.517 101.258C124.177 101.271 124.57 100.395 124.57 98.6172C124.57 96.8525 124.177 95.9639 123.517 95.9639Z" fill="white"/>
</svg>
