<svg width="17" height="18" viewBox="0 0 17 18" fill="none" xmlns="http://www.w3.org/2000/svg">
<g id="messages-2">
<path id="Vector" d="M13.083 12.4213L13.3592 14.6596C13.4301 15.2475 12.7996 15.6583 12.2967 15.3537L9.3288 13.59C9.00297 13.59 8.68423 13.5687 8.37256 13.5262C8.89673 12.91 9.20839 12.1308 9.20839 11.2879C9.20839 9.27623 7.46589 7.64709 5.31255 7.64709C4.49089 7.64709 3.73297 7.88082 3.10256 8.29166C3.08131 8.11457 3.07422 7.93748 3.07422 7.75332C3.07422 4.5304 5.87214 1.91666 9.3288 1.91666C12.7855 1.91666 15.5834 4.5304 15.5834 7.75332C15.5834 9.66582 14.5988 11.3588 13.083 12.4213Z" stroke="white" stroke-width="1.3" stroke-linecap="round" stroke-linejoin="round"/>
<path id="Vector_2" d="M9.20829 11.2879C9.20829 12.1308 8.89663 12.91 8.37246 13.5263C7.67121 14.3763 6.55913 14.9216 5.31246 14.9216L3.46371 16.0196C3.15204 16.2108 2.75537 15.9487 2.79787 15.5875L2.97496 14.1921C2.02579 13.5333 1.41663 12.4779 1.41663 11.2879C1.41663 10.0412 2.08246 8.94333 3.10246 8.29166C3.73288 7.88083 4.49079 7.64709 5.31246 7.64709C7.46579 7.64709 9.20829 9.27623 9.20829 11.2879Z" stroke="white" stroke-width="1.3" stroke-linecap="round" stroke-linejoin="round"/>
</g>
</svg>
