<svg width="43" height="43" viewBox="0 0 43 43" fill="none" xmlns="http://www.w3.org/2000/svg">
<path d="M28.6668 16.1072V36.4606C28.6668 39.0585 26.8035 40.1514 24.5281 38.8972L17.4868 34.9735C16.7343 34.5614 15.516 34.5614 14.7635 34.9735L7.72224 38.8972C5.44683 40.1514 3.5835 39.0585 3.5835 36.4606V16.1072C3.5835 13.0435 6.0918 10.5352 9.15555 10.5352H23.0948C26.1585 10.5352 28.6668 13.0435 28.6668 16.1072Z" stroke="#F2F2F2" stroke-width="1.5" stroke-linecap="round" stroke-linejoin="round"/>
<path d="M39.4168 9.15555V29.5089C39.4168 32.1068 37.5535 33.1997 35.2781 31.9456L28.6668 28.2547V16.1072C28.6668 13.0435 26.1585 10.5352 23.0948 10.5352H14.3335V9.15555C14.3335 6.0918 16.8418 3.5835 19.9056 3.5835H33.8448C36.9085 3.5835 39.4168 6.0918 39.4168 9.15555Z" stroke="#F2F2F2" stroke-width="1.5" stroke-linecap="round" stroke-linejoin="round"/>
<path d="M12.5415 21.5H19.7082" stroke="#F2F2F2" stroke-width="1.5" stroke-linecap="round" stroke-linejoin="round"/>
<path d="M16.125 25.0832V17.9165" stroke="#F2F2F2" stroke-width="1.5" stroke-linecap="round" stroke-linejoin="round"/>
</svg>
