<svg width="134" height="129" viewBox="0 0 134 129" fill="none" xmlns="http://www.w3.org/2000/svg">
<path d="M31.1406 85.1562C31.1341 86.6602 30.8086 88.0176 30.1641 89.2285C29.526 90.4329 28.6016 91.4648 27.3906 92.3242C26.1797 93.1836 24.7148 93.8542 22.9961 94.3359L22.1172 92.6367C24.0833 92.0964 25.6393 91.3314 26.7852 90.3418C27.9375 89.3522 28.6146 88.2096 28.8164 86.9141H23.0742V85.1562H31.1406ZM36.7852 94.043H34.6172V90.1953H31.2188V88.418H34.6172V84.1016H36.7852V94.043ZM36.7852 101.504H25.1641V94.7461H36.7852V101.504ZM27.293 99.7852H34.6367V96.4648H27.293V99.7852ZM44.793 87.2852C44.793 87.9622 44.9167 88.6133 45.1641 89.2383C45.418 89.8633 45.8021 90.4264 46.3164 90.9277C46.8307 91.429 47.4622 91.8294 48.2109 92.1289L47.0391 93.7891C46.2839 93.4831 45.6296 93.0566 45.0762 92.5098C44.5293 91.9629 44.0931 91.3249 43.7676 90.5957C43.429 91.4225 42.9668 92.1517 42.3809 92.7832C41.7949 93.4147 41.0951 93.9062 40.2812 94.2578L39.1289 92.5781C39.9036 92.2331 40.5579 91.7773 41.0918 91.2109C41.6257 90.638 42.026 90.013 42.293 89.3359C42.5599 88.6589 42.6966 87.9753 42.7031 87.2852V85.1367H44.793V87.2852ZM54.3828 94.7852H52.3125V90.293H50.5547V94.6875H48.5234V84.3945H50.5547V88.4961H52.3125V84.1016H54.3828V94.7852ZM54.3828 101.738H52.2148V97.3633H42.293V95.625H54.3828V101.738ZM71.3555 93.0273H69.1875V91.4844H64.9297V89.8242H69.1875V88.0859H65.1543C64.0671 90.7487 61.5378 92.526 57.5664 93.418L56.8047 91.6406C58.8294 91.224 60.3822 90.5827 61.4629 89.7168C62.5501 88.8509 63.1719 87.8125 63.3281 86.6016H57.7812V84.8438H65.75C65.75 85.3581 65.7077 85.8854 65.623 86.4258H69.1875V84.082H71.3555V93.0273ZM71.3555 98.3594H61.9219V99.8242H71.8242V101.562H59.7539V96.7383H69.1875V95.4297H59.7344V93.7109H71.3555V98.3594ZM83.7188 87.168C83.7188 88.3268 83.6895 89.4238 83.6309 90.459C83.5788 91.4876 83.4453 92.6693 83.2305 94.0039L81.082 93.8281C81.2708 92.6302 81.3945 91.5495 81.4531 90.5859C81.5182 89.6224 81.554 88.6458 81.5605 87.6562H74.6367V85.918H83.7188V87.168ZM79.2656 96.1719C81.2708 96.0938 83.0482 95.957 84.5977 95.7617L84.7148 97.3828C81.9935 97.8125 78.6602 98.0273 74.7148 98.0273H73.9141L73.6992 96.2891C75.2227 96.276 76.362 96.2598 77.1172 96.2402V90.957H79.2656V96.1719ZM87.7031 91.2695H90.2617V93.1055H87.7031V101.738H85.5156V84.082H87.7031V91.2695ZM107.254 93.7305H91.1211V92.0898H107.254V93.7305ZM105.301 98.8086H95.1836V100.039H105.828V101.543H93.0156V97.4023H103.152V96.3086H92.9961V94.7852H105.301V98.8086ZM105.262 88.457H95.3203V89.6094H105.574V91.0938H93.1719V87.0508H103.094V85.9766H93.1133V84.4727H105.262V88.457ZM7.33203 111.695C7.33203 112.34 7.49154 112.958 7.81055 113.551C8.12956 114.143 8.60482 114.671 9.23633 115.133C9.86784 115.595 10.6328 115.947 11.5312 116.188L10.5547 117.848C9.55208 117.587 8.6862 117.18 7.95703 116.627C7.23438 116.067 6.67122 115.403 6.26758 114.635C5.87044 115.475 5.30078 116.201 4.55859 116.812C3.82292 117.424 2.94401 117.88 1.92188 118.18L0.886719 116.461C1.79167 116.22 2.56641 115.859 3.21094 115.377C3.85547 114.895 4.34049 114.335 4.66602 113.697C4.99805 113.059 5.16406 112.392 5.16406 111.695V111.637H1.47266V109.918H5.16406V108.004H7.35156V109.918H11.0234V111.637H7.33203V111.695ZM14.9102 112.184H17.3711V113.98H14.9102V118.199H12.7422V108.082H14.9102V112.184ZM15.1641 120.758H10.4961C10.6328 121.253 10.9388 121.721 11.4141 122.164C11.8958 122.607 12.5208 122.994 13.2891 123.326C14.0573 123.652 14.9297 123.883 15.9062 124.02L15.125 125.68C13.7578 125.484 12.5664 125.11 11.5508 124.557C10.5352 124.003 9.76693 123.32 9.24609 122.506C8.73177 123.307 7.97005 123.98 6.96094 124.527C5.95833 125.074 4.77995 125.445 3.42578 125.641L2.625 124C3.61458 123.863 4.49023 123.635 5.25195 123.316C6.02018 122.997 6.63867 122.62 7.10742 122.184C7.58268 121.741 7.88867 121.266 8.02539 120.758H3.34766V119.02H15.1641V120.758ZM26.2969 108.355C27.638 108.355 28.7806 108.473 29.7246 108.707C30.6751 108.941 31.401 109.286 31.9023 109.742C32.4036 110.191 32.6576 110.738 32.6641 111.383C32.6576 112.359 32.1009 113.108 30.9941 113.629C29.8874 114.15 28.3216 114.417 26.2969 114.43C24.2656 114.417 22.6966 114.15 21.5898 113.629C20.4831 113.108 19.9297 112.359 19.9297 111.383C19.9297 110.738 20.1803 110.191 20.6816 109.742C21.1829 109.286 21.9089 108.941 22.8594 108.707C23.8099 108.473 24.9557 108.355 26.2969 108.355ZM26.2969 109.957C24.9557 109.957 23.9368 110.081 23.2402 110.328C22.5436 110.569 22.2018 110.921 22.2148 111.383C22.2083 111.865 22.5469 112.223 23.2305 112.457C23.9141 112.691 24.9362 112.809 26.2969 112.809C27.6771 112.809 28.709 112.691 29.3926 112.457C30.0762 112.223 30.418 111.865 30.418 111.383C30.418 110.921 30.0697 110.569 29.373 110.328C28.6764 110.081 27.651 109.957 26.2969 109.957ZM34.3633 117.105H18.2695V115.367H34.3633V117.105ZM32.3516 122.613H22.3125V123.922H32.8398V125.582H20.1836V121.07H30.2227V119.898H20.1641V118.297H32.3516V122.613ZM49.5 109.547C49.5 110.289 49.7604 111.012 50.2812 111.715C50.8086 112.418 51.5443 113.02 52.4883 113.521C53.4388 114.023 54.526 114.352 55.75 114.508L54.8906 116.266C53.4062 116.044 52.0911 115.589 50.9453 114.898C49.7995 114.202 48.9368 113.352 48.3574 112.35C47.778 113.352 46.9186 114.202 45.7793 114.898C44.64 115.589 43.3346 116.044 41.8633 116.266L41.0039 114.508C42.2148 114.352 43.2923 114.023 44.2363 113.521C45.1803 113.02 45.9128 112.418 46.4336 111.715C46.9544 111.012 47.2148 110.289 47.2148 109.547V108.648H49.5V109.547ZM56.3945 119.586H49.3828V125.738H47.2344V119.586H40.3008V117.789H56.3945V119.586ZM66.3359 120.309H68.6602V118.414H70.6719V124.02C71.3359 123.74 71.8958 123.368 72.3516 122.906C72.8073 122.444 73.1458 121.936 73.3672 121.383C73.5885 120.829 73.6992 120.263 73.6992 119.684V118.277H75.8672V119.684C75.8672 120.66 76.1276 121.542 76.6484 122.33C77.1693 123.118 77.9505 123.688 78.9922 124.039L77.8789 125.66C77.1237 125.393 76.4857 125.006 75.9648 124.498C75.4505 123.99 75.0501 123.388 74.7637 122.691C74.4577 123.362 74.0475 123.951 73.5332 124.459C73.0254 124.973 72.4167 125.374 71.707 125.66L70.6719 124.127V125.523H64.3047V118.414H66.3359V120.309ZM68.6602 123.863V121.93H66.3359V123.863H68.6602ZM67.2344 108.805C67.9831 108.805 68.6732 108.938 69.3047 109.205C69.9427 109.465 70.4733 109.837 70.8965 110.318C71.3197 110.8 71.6061 111.357 71.7559 111.988H74.9492V108.082H77.1172V117.438H74.9492V113.785H71.7656C71.6224 114.43 71.3359 114.999 70.9062 115.494C70.4831 115.989 69.9525 116.373 69.3145 116.646C68.6829 116.913 67.9896 117.047 67.2344 117.047C66.3359 117.047 65.5319 116.871 64.8223 116.52C64.1191 116.168 63.5658 115.68 63.1621 115.055C62.765 114.423 62.5664 113.707 62.5664 112.906C62.5664 112.112 62.765 111.406 63.1621 110.787C63.5658 110.162 64.1191 109.677 64.8223 109.332C65.5319 108.98 66.3359 108.805 67.2344 108.805ZM67.2344 110.602C66.7266 110.602 66.2773 110.696 65.8867 110.885C65.4961 111.074 65.1901 111.344 64.9688 111.695C64.7474 112.04 64.6367 112.444 64.6367 112.906C64.6367 113.375 64.7474 113.788 64.9688 114.146C65.1901 114.505 65.4961 114.781 65.8867 114.977C66.2839 115.172 66.7331 115.27 67.2344 115.27C67.7227 115.27 68.1589 115.172 68.543 114.977C68.9336 114.781 69.2363 114.505 69.4512 114.146C69.6725 113.788 69.7865 113.375 69.793 112.906C69.7865 112.444 69.6725 112.04 69.4512 111.695C69.2363 111.344 68.9368 111.074 68.5527 110.885C68.1686 110.696 67.7292 110.602 67.2344 110.602ZM84.4414 109.371C85.2357 109.371 85.9518 109.583 86.5898 110.006C87.2279 110.429 87.7487 111.035 88.1523 111.822C88.556 112.604 88.8066 113.525 88.9043 114.586H92.2734V108.082H94.4219V125.758H92.2734V116.344H88.9336C88.8555 117.464 88.6178 118.44 88.2207 119.273C87.8236 120.1 87.2995 120.738 86.6484 121.188C85.9974 121.63 85.2617 121.852 84.4414 121.852C83.556 121.852 82.7715 121.598 82.0879 121.09C81.4043 120.582 80.8704 119.856 80.4863 118.912C80.1022 117.968 79.9102 116.865 79.9102 115.602C79.9102 114.352 80.1022 113.258 80.4863 112.32C80.8704 111.376 81.4043 110.65 82.0879 110.143C82.778 109.628 83.5625 109.371 84.4414 109.371ZM84.4414 111.324C83.9531 111.324 83.5234 111.497 83.1523 111.842C82.7812 112.18 82.4948 112.672 82.293 113.316C82.0911 113.954 81.9935 114.716 82 115.602C81.9935 116.493 82.0911 117.262 82.293 117.906C82.4948 118.551 82.7812 119.046 83.1523 119.391C83.5234 119.729 83.9531 119.898 84.4414 119.898C84.9297 119.898 85.3561 119.729 85.7207 119.391C86.0918 119.046 86.3783 118.551 86.5801 117.906C86.7884 117.262 86.8958 116.493 86.9023 115.602C86.8958 114.716 86.7884 113.951 86.5801 113.307C86.3783 112.662 86.0918 112.171 85.7207 111.832C85.3561 111.493 84.9297 111.324 84.4414 111.324ZM113.035 123.59H96.9023V121.812H100.633V117.35C99.9167 116.933 99.36 116.415 98.9629 115.797C98.5723 115.178 98.3802 114.482 98.3867 113.707C98.3802 112.789 98.6569 111.975 99.2168 111.266C99.7767 110.556 100.555 110.009 101.551 109.625C102.547 109.234 103.673 109.039 104.93 109.039C106.193 109.039 107.322 109.234 108.318 109.625C109.321 110.009 110.102 110.556 110.662 111.266C111.229 111.969 111.512 112.783 111.512 113.707C111.512 114.462 111.32 115.149 110.936 115.768C110.558 116.38 110.021 116.891 109.324 117.301V121.812H113.035V123.59ZM104.93 110.758C104.051 110.758 103.276 110.878 102.605 111.119C101.941 111.354 101.424 111.692 101.053 112.135C100.688 112.577 100.509 113.102 100.516 113.707C100.509 114.306 100.688 114.827 101.053 115.27C101.424 115.712 101.945 116.054 102.615 116.295C103.286 116.536 104.057 116.656 104.93 116.656C105.802 116.656 106.574 116.536 107.244 116.295C107.921 116.054 108.445 115.712 108.816 115.27C109.194 114.827 109.383 114.306 109.383 113.707C109.383 113.108 109.194 112.587 108.816 112.145C108.445 111.695 107.924 111.354 107.254 111.119C106.583 110.878 105.809 110.758 104.93 110.758ZM107.117 121.812V118.131C106.427 118.281 105.698 118.355 104.93 118.355C104.194 118.355 103.478 118.284 102.781 118.141V121.812H107.117ZM113.602 125.4H133.602V105.4H113.602V125.4Z" fill="#03D664"/>
<path d="M67.4998 59.5834C82.3957 59.5834 94.5832 47.3959 94.5832 32.5001C94.5832 17.6042 82.3957 5.41675 67.4998 5.41675C52.604 5.41675 40.4165 17.6042 40.4165 32.5001C40.4165 47.3959 52.604 59.5834 67.4998 59.5834Z" stroke="#03D664" stroke-width="2.5" stroke-linecap="round" stroke-linejoin="round"/>
<path d="M67.5 21.6667V35.2084" stroke="#03D664" stroke-width="2.3" stroke-linecap="round" stroke-linejoin="round"/>
<path d="M67.4854 43.3333H67.5097" stroke="#03D664" stroke-width="2" stroke-linecap="round" stroke-linejoin="round"/>
<circle cx="67.5" cy="43.5" r="1.5" fill="#03D664"/>
</svg>
