<svg width="14" height="14" viewBox="0 0 14 14" fill="none" xmlns="http://www.w3.org/2000/svg">
<g id="notification">
<path id="Vector" d="M7.01166 1.69749C5.08083 1.69749 3.51166 3.26666 3.51166 5.19749V6.88333C3.51166 7.23916 3.36 7.78166 3.17916 8.08499L2.50833 9.19916C2.09416 9.88749 2.38 10.6517 3.13833 10.9083C5.6525 11.7483 8.365 11.7483 10.8792 10.9083C11.585 10.675 11.8942 9.84083 11.5092 9.19916L10.8383 8.08499C10.6633 7.78166 10.5117 7.23916 10.5117 6.88333V5.19749C10.5117 3.27249 8.93666 1.69749 7.01166 1.69749Z" stroke="black" stroke-miterlimit="10" stroke-linecap="round"/>
<path id="Vector_2" d="M8.09084 1.86667C7.91 1.81417 7.72334 1.77333 7.53084 1.75C6.97084 1.68 6.43417 1.72083 5.9325 1.86667C6.10167 1.435 6.52167 1.13167 7.01167 1.13167C7.50167 1.13167 7.92167 1.435 8.09084 1.86667Z" stroke="black" stroke-miterlimit="10" stroke-linecap="round" stroke-linejoin="round"/>
<path id="Vector_3" d="M8.76167 11.1183C8.76167 12.0808 7.97417 12.8683 7.01167 12.8683C6.53333 12.8683 6.09 12.67 5.775 12.355C5.46 12.04 5.26167 11.5967 5.26167 11.1183" stroke="black" stroke-miterlimit="10"/>
</g>
</svg>
