<svg width="171" height="198" viewBox="0 0 171 198" fill="none" xmlns="http://www.w3.org/2000/svg">
<g filter="url(#filter0_i_4466_28654)">
<rect x="0.935547" y="0.777344" width="169.564" height="196.495" rx="19.9487" fill="white"/>
<rect x="1.68362" y="1.52542" width="168.068" height="194.999" rx="19.2006" stroke="#C1D9CC" stroke-width="1.49615"/>
<path d="M65.6655 120.699V123.904H67.0973V119.581H68.5428V131.09H67.0973V125.131H65.6655V128.513H60.8244V120.699H65.6655ZM62.2426 121.899V127.313H64.2472V121.899H62.2426ZM71.0793 119.363V131.69H69.6202V119.363H71.0793ZM81.9673 123.345V124.572H73.4034V119.949H74.9171V123.345H81.9673ZM83.2492 126.086V127.313H80.5491V131.69H79.0218V127.313H76.2399V131.69H74.7262V127.313H72.0124V126.086H83.2492ZM94.8327 124.954V126.099H83.5687V124.954H94.8327ZM93.469 126.836V129.645H86.4051V130.504H93.8372V131.554H84.8914V128.663H91.969V127.899H84.8778V126.836H93.469ZM93.4417 119.635V122.417H86.5006V123.222H93.6599V124.258H85.0005V121.435H91.928V120.685H84.9596V119.635H93.4417ZM104.199 120.481V121.722H100.095V127.463C102.017 127.449 103.374 127.367 104.908 127.081L105.072 128.308C103.34 128.649 101.854 128.717 99.5491 128.717H98.5672V120.481H104.199ZM108.318 119.363V131.704H106.804V124.94H103.545V123.699H106.804V119.363H108.318ZM52.917 143.767V145.008H48.035V148.704H46.535V145.008H41.6803V143.767H52.917ZM51.867 137.822V139.022H48.0623C48.2055 140.242 49.8078 141.517 52.2761 141.817L51.717 143.017C49.6783 142.758 48.0964 141.858 47.2986 140.672C46.4872 141.872 44.8917 142.758 42.8394 143.017L42.2939 141.817C44.7554 141.517 46.3713 140.263 46.5213 139.022H42.7167V137.822H46.535V136.376H48.035V137.822H51.867ZM62.905 136.363V141.176H64.7323V142.445H62.905V148.663H61.3913V136.363H62.905ZM59.6458 137.644C59.6458 141.272 58.1457 144.449 54.0411 146.467L53.1819 145.295C56.182 143.801 57.8048 141.701 58.1185 138.899H53.8501V137.644H59.6458ZM74.543 136.335V139.117H76.2749V140.345H74.543V143.058H73.0294V136.335H74.543ZM74.543 143.604V146.577H67.9974V147.449H74.9249V148.581H66.4973V145.526H73.0294V144.708H66.4837V143.604H74.543ZM72.143 137.358V138.517H64.8336V137.358H67.7383V136.267H69.252V137.358H72.143ZM68.4883 138.899C70.3156 138.913 71.4884 139.69 71.502 140.917C71.4884 142.185 70.3156 142.936 68.4883 142.936C66.661 142.936 65.4609 142.185 65.4609 140.917C65.4609 139.69 66.661 138.913 68.4883 138.899ZM68.4883 139.99C67.5337 139.99 66.9337 140.331 66.9337 140.917C66.9337 141.517 67.5337 141.845 68.4883 141.845C69.4429 141.845 70.0565 141.517 70.0565 140.917C70.0565 140.331 69.4429 139.99 68.4883 139.99ZM85.6278 137.385C85.6278 138.94 87.3597 140.508 89.9916 140.849L89.3916 142.076C87.2983 141.763 85.6346 140.733 84.8369 139.335C84.0255 140.733 82.3686 141.763 80.2958 142.076L79.6958 140.849C82.3004 140.508 84.0323 138.94 84.0323 137.385V136.758H85.6278V137.385ZM90.4416 143.14V144.395H85.546V148.69H84.046V144.395H79.2049V143.14H90.4416ZM97.9672 144.381C97.9672 145.404 98.4377 146.481 99.4945 147.149C100.565 146.433 101.063 145.315 101.076 144.381V143.876H102.563V144.381C102.549 145.677 103.313 146.877 104.936 147.395L104.199 148.499C102.999 148.097 102.201 147.313 101.772 146.331C101.376 147.299 100.647 148.165 99.5354 148.608C98.3627 148.186 97.6263 147.354 97.2445 146.372C96.8013 147.32 96.0171 148.09 94.8716 148.499L94.1216 147.395C95.7171 146.836 96.4808 145.581 96.4944 144.381V143.876H97.9672V144.381ZM103.858 136.376V143.358H102.331V136.376H103.858ZM97.1354 137.031C99.0309 137.031 100.449 138.231 100.449 139.963C100.449 141.681 99.0309 142.881 97.1354 142.881C95.2262 142.881 93.808 141.681 93.808 139.963C93.808 138.231 95.2262 137.031 97.1354 137.031ZM97.1354 138.313C96.058 138.313 95.2807 138.954 95.2944 139.963C95.2807 140.972 96.058 141.626 97.1354 141.626C98.199 141.626 98.9627 140.972 98.9627 139.963C98.9627 138.954 98.199 138.313 97.1354 138.313ZM108.528 137.263C110.198 137.263 111.433 138.654 111.651 140.904H113.996V136.363H115.496V148.704H113.996V142.131H111.664C111.501 144.511 110.246 145.977 108.528 145.977C106.673 145.977 105.364 144.299 105.364 141.613C105.364 138.954 106.673 137.263 108.528 137.263ZM108.528 138.626C107.505 138.626 106.81 139.731 106.823 141.613C106.81 143.508 107.505 144.613 108.528 144.613C109.551 144.613 110.233 143.508 110.246 141.613C110.233 139.731 109.551 138.626 108.528 138.626ZM127.994 145.949V147.19H116.73V145.949H119.334V142.826C118.352 142.267 117.759 141.388 117.766 140.29C117.752 138.326 119.689 137.031 122.334 137.031C124.993 137.031 126.93 138.326 126.93 140.29C126.93 141.367 126.357 142.233 125.403 142.799V145.949H127.994ZM122.334 138.231C120.493 138.231 119.239 139.008 119.252 140.29C119.239 141.558 120.493 142.349 122.334 142.349C124.175 142.349 125.443 141.558 125.443 140.29C125.443 139.008 124.175 138.231 122.334 138.231ZM120.834 145.949H123.862V143.372C123.391 143.481 122.88 143.536 122.334 143.536C121.802 143.536 121.298 143.481 120.834 143.386V145.949Z" fill="#C1D9CC"/>
<path d="M102.193 81.1406V89.3512C102.193 97.5617 98.9202 100.853 90.6913 100.853H80.8351C79.7745 100.853 78.8052 100.799 77.9092 100.671" stroke="#C1D9CC" stroke-width="1.99487" stroke-linecap="round" stroke-linejoin="round"/>
<path d="M69.332 89.0038V81.1406" stroke="#C1D9CC" stroke-width="1.99487" stroke-linecap="round" stroke-linejoin="round"/>
<path d="M85.7727 82.5656C89.1191 82.5656 91.5878 79.8411 91.2586 76.4947L90.0334 64.2793H81.4937L80.2685 76.4947C79.9394 79.8411 82.4263 82.5656 85.7727 82.5656Z" stroke="#C1D9CC" stroke-width="1.99487" stroke-linecap="round" stroke-linejoin="round"/>
<path d="M97.2928 82.5656C100.987 82.5656 103.693 79.5666 103.327 75.8911L102.815 70.8623C102.157 66.1079 100.328 64.2793 95.5373 64.2793H89.96L91.24 77.098C91.5692 80.1153 94.2756 82.5656 97.2928 82.5656Z" stroke="#C1D9CC" stroke-width="1.99487" stroke-linecap="round" stroke-linejoin="round"/>
<path d="M74.1423 82.5656C77.1596 82.5656 79.8842 80.1153 80.1768 77.098L80.5791 73.0568L81.4569 64.2793H75.8795C71.0885 64.2793 69.2599 66.1079 68.6016 70.8623L68.0896 75.8911C67.7238 79.5666 70.4485 82.5656 74.1423 82.5656Z" stroke="#C1D9CC" stroke-width="1.99487" stroke-linecap="round" stroke-linejoin="round"/>
<path d="M80.2306 95.3673C80.2306 96.7387 79.8466 98.0372 79.17 99.1344C78.8225 99.7195 78.402 100.25 77.9082 100.67C77.8534 100.743 77.7986 100.798 77.7254 100.853C76.4454 102.005 74.763 102.682 72.9161 102.682C70.6852 102.682 68.6919 101.676 67.3753 100.103C67.3387 100.049 67.2839 100.012 67.2474 99.9572C67.0279 99.7011 66.8268 99.4269 66.6622 99.1344C65.9856 98.0372 65.6016 96.7387 65.6016 95.3673C65.6016 93.0632 66.6622 90.9968 68.3445 89.6619C68.6554 89.4059 68.9845 89.1865 69.3319 89.0037C70.3925 88.4002 71.6178 88.0527 72.9161 88.0527C74.7447 88.0527 76.3905 88.711 77.6705 89.8265C77.8899 89.991 78.0911 90.1923 78.274 90.3934C79.4809 91.7101 80.2306 93.4472 80.2306 95.3673Z" stroke="#C1D9CC" stroke-width="1.99487" stroke-miterlimit="10" stroke-linecap="round" stroke-linejoin="round"/>
<path d="M75.6407 95.3281H70.1914" stroke="#C1D9CC" stroke-width="1.99487" stroke-miterlimit="10" stroke-linecap="round" stroke-linejoin="round"/>
<path d="M72.916 92.6602V98.1277" stroke="#C1D9CC" stroke-width="1.99487" stroke-miterlimit="10" stroke-linecap="round" stroke-linejoin="round"/>
</g>
<defs>
<filter id="filter0_i_4466_28654" x="0.935547" y="0.777344" width="169.564" height="196.494" filterUnits="userSpaceOnUse" color-interpolation-filters="sRGB">
<feFlood flood-opacity="0" result="BackgroundImageFix"/>
<feBlend mode="normal" in="SourceGraphic" in2="BackgroundImageFix" result="shape"/>
<feColorMatrix in="SourceAlpha" type="matrix" values="0 0 0 0 0 0 0 0 0 0 0 0 0 0 0 0 0 0 127 0" result="hardAlpha"/>
<feOffset/>
<feGaussianBlur stdDeviation="4.48846"/>
<feComposite in2="hardAlpha" operator="arithmetic" k2="-1" k3="1"/>
<feColorMatrix type="matrix" values="0 0 0 0 1 0 0 0 0 1 0 0 0 0 1 0 0 0 0.25 0"/>
<feBlend mode="normal" in2="shape" result="effect1_innerShadow_4466_28654"/>
</filter>
</defs>
</svg>
