<svg width="81" height="21" viewBox="0 0 81 21" fill="none" xmlns="http://www.w3.org/2000/svg">
<rect x="0.5" width="80" height="21" rx="5" fill="#E8EAEE"/>
<path d="M11.5 6.5V14.5" stroke="#42444D" stroke-width="1.12" stroke-linecap="round"/>
<path d="M7.5 10.5H15.5" stroke="#42444D" stroke-width="1.12" stroke-linecap="round"/>
<path d="M25.6655 11.617C27.5338 11.6265 28.7157 12.2175 28.7253 13.2374C28.7157 14.2383 27.5338 14.8388 25.6655 14.8388C23.8067 14.8388 22.6152 14.2383 22.6152 13.2374C22.6152 12.2175 23.8067 11.6265 25.6655 11.617ZM25.6655 12.4177C24.4263 12.4177 23.6733 12.7132 23.6828 13.2374C23.6733 13.7426 24.4263 14.0191 25.6655 14.0191C26.9142 14.0191 27.6672 13.7426 27.6767 13.2374C27.6672 12.7132 26.9142 12.4177 25.6655 12.4177ZM28.6681 6.6413V7.3562C28.6681 8.03297 28.6681 8.7574 28.4298 9.64388L27.3812 9.54856C27.5957 8.70974 27.61 8.10446 27.61 7.48011H22.701V6.6413H28.6681ZM29.6213 10.1395V10.9974H21.805V10.1395H24.8362V8.57629H25.8847V10.1395H29.6213ZM33.0655 8.68115C33.0655 10.0919 33.8948 11.5789 35.2864 12.1603L34.705 12.9991C33.6851 12.5607 32.9416 11.6551 32.5508 10.5589C32.1504 11.7409 31.3974 12.7322 30.387 13.2088L29.777 12.3796C31.14 11.7504 31.9884 10.1491 31.9884 8.68115V7.95671H30.0915V7.07977H34.9528V7.95671H33.0655V8.68115ZM36.9831 6.23142V14.8483H35.9156V6.23142H36.9831ZM47.6081 11.4073V12.2747H44.1957V14.8579H43.1472V12.2747H39.7538V11.4073H47.6081ZM46.8742 7.25135V8.09016H44.2148C44.3148 8.94328 45.4348 9.83452 47.1601 10.0442L46.7693 10.883C45.3443 10.7019 44.2386 10.0728 43.681 9.24353C43.1138 10.0823 41.9986 10.7019 40.564 10.883L40.1827 10.0442C41.9032 9.83452 43.0328 8.95757 43.1376 8.09016H40.4782V7.25135H43.1472V6.24095H44.1957V7.25135H46.8742ZM54.5316 6.23142V9.59622H55.8088V10.4827H54.5316V14.8293H53.4735V6.23142H54.5316ZM52.2534 7.12743C52.2534 9.66294 51.2049 11.8839 48.3358 13.2946L47.7352 12.4749C49.8323 11.4311 50.9666 9.9632 51.1858 8.00437H48.2023V7.12743H52.2534ZM62.5607 6.23142V9.66294H63.8856V10.5399H62.5607V14.8483H61.5122V6.23142H62.5607ZM60.8449 7.55637V8.40472H55.7644V7.55637H57.8042V6.35534H58.8623V7.55637H60.8449ZM58.338 8.96711C59.5772 8.96711 60.5018 9.80592 60.5018 10.9974C60.5018 12.1889 59.5772 13.0182 58.338 13.0182C57.0798 13.0182 56.1552 12.1889 56.1647 10.9974C56.1552 9.80592 57.0798 8.96711 58.338 8.96711ZM58.338 9.83452C57.6612 9.83452 57.1751 10.2921 57.1751 10.9974C57.1751 11.7028 57.6612 12.1508 58.338 12.1413C58.9957 12.1508 59.4818 11.7028 59.4914 10.9974C59.4818 10.2921 58.9957 9.83452 58.338 9.83452ZM71.0378 6.23142V14.8483H69.9702V6.23142H71.0378ZM68.4642 7.14649C68.4642 9.7106 67.4728 11.8934 64.4512 13.3232L63.8983 12.4749C66.1526 11.4025 67.2012 9.94413 67.387 7.98531H64.3368V7.14649H68.4642Z" fill="#42444D"/>
</svg>
