<svg width="162" height="20" viewBox="0 0 162 20" fill="none" xmlns="http://www.w3.org/2000/svg">
<path d="M85.7173 2.28187H93.8739C92.4832 2.56373 91.6374 2.83385 91.3367 3.09223C91.036 3.35061 90.8857 3.74404 90.8857 4.27254V12.6756C90.8857 13.1454 91.249 13.8677 91.9757 14.8425C92.7024 15.8173 93.6734 16.6805 94.8888 17.4321C96.1041 18.1838 97.4573 18.5596 98.9483 18.5596C99.5748 18.5596 100.095 18.448 100.508 18.2249C100.934 18.0135 101.147 17.6846 101.147 17.2383C101.147 16.886 100.997 16.5983 100.696 16.3751C100.395 16.1637 100.132 15.9817 99.9068 15.829C100.07 15.5237 100.258 15.3123 100.471 15.1948C100.684 15.0891 100.966 15.0363 101.316 15.0363C101.68 15.0363 101.924 15.2183 102.049 15.5824C102.175 15.9465 102.237 16.3047 102.237 16.657C102.237 17.3969 101.987 17.9724 101.486 18.3834C100.997 18.7945 100.045 19 98.6288 19C96.8121 19 95.4276 18.7299 94.4753 18.1896C93.5356 17.6611 92.527 16.9271 91.4495 15.9876C90.372 15.048 89.5074 14.5782 88.8559 14.5782H85.5482C84.7212 14.5782 83.9695 14.8249 83.2929 15.3181C82.9421 15.6235 82.5975 15.9347 82.2592 16.2518C82.8356 15.1126 83.6875 14.4138 84.8152 14.1554C85.6672 14.0732 86.5192 13.991 87.3712 13.9088C88.148 13.7561 88.5364 13.21 88.5364 12.2705V4.39586C88.5364 3.8791 88.3359 3.47392 87.935 3.18031C87.5466 2.87496 87.0141 2.72228 86.3375 2.72228C84.7212 2.72228 83.581 3.03351 82.917 3.65596C82.2655 4.27841 81.9397 5.17098 81.9397 6.33368C81.9397 7.238 82.2341 8.00138 82.823 8.62383C83.4244 9.24629 84.0572 9.55751 84.7212 9.55751C85.1848 9.55751 85.6484 9.41658 86.112 9.13471C86.5756 8.85285 86.9327 8.30086 87.1832 7.47876C87.1832 8.35959 86.9452 8.98791 86.4691 9.36373C86.0055 9.72781 85.3853 9.90984 84.6085 9.90984C83.4056 9.90984 82.5035 9.61036 81.9021 9.0114C81.3007 8.40069 81 7.60794 81 6.63316C81 5.16511 81.5074 4.07288 82.5223 3.35648C83.5372 2.64007 84.6022 2.28187 85.7173 2.28187Z" fill="#3CB44B"/>
<path d="M93.6825 2.28187C93.9957 2.28187 94.2589 2.38757 94.4718 2.59896C94.6848 2.81036 94.7913 3.0981 94.7913 3.46218C94.7913 3.87323 94.6034 4.1962 94.2275 4.43109C93.8516 4.66598 93.5134 4.78342 93.2126 4.78342C92.9495 4.78342 92.7491 4.65423 92.6112 4.39586C92.4859 4.12573 92.4233 3.81451 92.4233 3.46218C92.4233 3.01589 92.5361 2.71054 92.7616 2.54611C92.9871 2.36995 93.2941 2.28187 93.6825 2.28187ZM93.4382 6.12228C93.8266 6.12228 94.096 6.26321 94.2463 6.54508C94.4092 6.82694 94.4906 7.16166 94.4906 7.54922V12.4995C94.5408 12.8283 94.6723 12.9927 94.8853 12.9927C95.0357 12.9927 95.2111 12.9164 95.4116 12.7637C95.612 12.6111 95.7436 12.5112 95.8062 12.4642C95.5055 12.9458 95.1986 13.2981 94.8853 13.5212C94.5846 13.7444 94.2401 13.856 93.8516 13.856C93.5259 13.856 93.2628 13.7268 93.0623 13.4684C92.8618 13.21 92.7616 12.9047 92.7616 12.5523V7.35544C92.7616 7.1323 92.6739 7.02073 92.4985 7.02073C92.2604 7.02073 91.8908 7.22038 91.3896 7.61969C91.4523 7.39655 91.7091 7.09119 92.1602 6.70363C92.6112 6.31606 93.0372 6.12228 93.4382 6.12228Z" fill="#3CB44B"/>
<path d="M97.6369 9.09948C98.2634 8.1247 98.8585 7.40242 99.4224 6.93264C99.9862 6.45112 100.469 6.21036 100.87 6.21036C101.321 6.21036 101.615 6.32781 101.753 6.56269C101.903 6.78584 101.978 7.20276 101.978 7.81347V9.96269C101.978 11.1724 101.621 12.1237 100.907 12.8166C100.205 13.4978 99.3472 13.8383 98.3323 13.8383C97.5805 13.8383 96.9729 13.6035 96.5093 13.1337C96.0582 12.6639 95.8327 11.8477 95.8327 10.685V5.04767C95.8327 4.19033 96.0708 3.46805 96.5469 2.88083C97.0355 2.29361 97.6745 2 98.4639 2H100.155C99.7544 2.68117 99.2344 3.04525 98.5954 3.09223C97.9564 3.12746 97.6369 3.23316 97.6369 3.40933V9.09948ZM97.6369 11.5306C97.6369 12.5641 98.0379 13.0808 98.8398 13.0808C99.178 13.0808 99.4787 12.9223 99.7419 12.6052C100.018 12.2763 100.155 11.7302 100.155 10.9668V8.71192C100.155 8.46528 100.13 8.27737 100.08 8.14819C100.03 8.00725 99.8734 7.93679 99.6103 7.93679C99.1968 7.93679 98.7646 8.22452 98.3135 8.8C97.8625 9.37547 97.6369 9.78066 97.6369 10.0155V11.5306Z" fill="#3CB44B"/>
<path d="M106.56 6.1399C107.049 6.1399 107.45 6.22211 107.763 6.38653C108.089 6.55095 108.527 6.89154 109.078 7.40829L104.511 11.6891C104.762 12.0767 105.069 12.3292 105.432 12.4466C105.808 12.5523 106.228 12.6052 106.692 12.6052C107.155 12.6052 107.587 12.5054 107.988 12.3057C108.402 12.106 108.771 11.8946 109.097 11.6715C108.596 12.3879 108.045 12.9282 107.443 13.2922C106.842 13.6446 106.153 13.8207 105.376 13.8207C104.261 13.8207 103.472 13.486 103.008 12.8166C102.544 12.1472 102.313 11.4249 102.313 10.6497C102.313 9.28739 102.72 8.19516 103.534 7.37306C104.349 6.55095 105.357 6.1399 106.56 6.1399ZM104.342 11.2839C104.781 10.8846 105.219 10.4853 105.658 10.086C106.322 9.41658 106.654 8.91157 106.654 8.57098C106.654 8.15993 106.548 7.84283 106.335 7.61969C106.122 7.3848 105.84 7.26736 105.489 7.26736C105.05 7.26736 104.706 7.51399 104.455 8.00725C104.205 8.48877 104.079 9.06425 104.079 9.73368C104.079 10.0155 104.098 10.2857 104.136 10.544C104.173 10.7907 104.242 11.0373 104.342 11.2839Z" fill="#3CB44B"/>
<path d="M110.859 6.12228C111.21 6.12228 111.429 6.28083 111.517 6.59793C111.617 6.90328 111.667 7.44352 111.667 8.21865V9.0114C112.143 8.38895 112.625 7.76649 113.114 7.14404C113.728 6.46287 114.336 6.12228 114.937 6.12228C115.275 6.12228 115.538 6.23972 115.726 6.47461C115.927 6.69775 116.027 6.97375 116.027 7.30259C116.027 7.7019 115.789 8.14819 115.313 8.64145C114.837 9.12297 114.367 9.57513 113.903 9.99793C113.966 9.88048 114.029 9.6867 114.091 9.41658C114.167 9.13471 114.204 8.88808 114.204 8.67668C114.204 8.41831 114.154 8.20691 114.054 8.04249C113.966 7.87807 113.809 7.79585 113.584 7.79585C113.346 7.79585 113.045 8.00138 112.682 8.41244C112.331 8.81174 111.993 9.21693 111.667 9.62798V12.9223C111.454 13.1102 111.203 13.304 110.915 13.5036C110.627 13.6915 110.295 13.809 109.919 13.856V8.02487C109.919 7.77824 109.794 7.65492 109.543 7.65492C109.43 7.65492 109.299 7.69603 109.149 7.77824C108.998 7.8487 108.829 7.97202 108.641 8.14819C108.842 7.76062 109.199 7.32608 109.712 6.84456C110.226 6.36304 110.608 6.12228 110.859 6.12228Z" fill="#3CB44B"/>
<path d="M123.019 2.28187L123.319 2.01762V2.28187H130.029C130.029 2.7399 130.236 3.3095 130.649 3.99067C131.075 4.6601 131.351 5.20035 131.476 5.6114C130.662 4.93022 129.853 4.24905 129.052 3.56788C128.175 3.07461 127.216 2.82798 126.176 2.82798H123.301V8.34197C123.915 7.62556 124.522 7.04421 125.124 6.59793C125.738 6.1399 126.489 5.91088 127.379 5.91088C127.868 5.91088 128.243 6.04007 128.507 6.29845C128.77 6.55682 128.901 6.89741 128.901 7.32021C128.901 7.70777 128.77 8.1247 128.507 8.57098C128.544 8.26563 128.563 8.01313 128.563 7.81347C128.563 7.33195 128.469 7.02073 128.281 6.87979C128.106 6.72712 127.855 6.65078 127.529 6.65078C126.853 6.65078 125.976 7.1734 124.898 8.21865C123.833 9.25216 123.301 10.544 123.301 12.0943C123.301 13.0573 123.464 13.6387 123.789 13.8383C124.128 14.038 124.848 14.1378 125.951 14.1378C127.191 14.1378 128.281 13.8736 129.221 13.3451C130.16 12.8048 130.9 12.018 131.438 10.9845C131.376 11.5364 131.188 12.1413 130.875 12.799C130.574 13.4449 130.292 14.038 130.029 14.5782H124.56H119.091C119.329 14.4608 119.567 14.3434 119.805 14.2259C120.557 13.7914 120.933 13.2746 120.933 12.6756V6.49223C120.933 5.94024 121.008 5.47047 121.158 5.0829C121.321 4.68359 121.716 3.93195 122.342 2.82798C120.312 2.82798 118.89 3.10985 118.076 3.67358C117.261 4.22556 116.854 5.16511 116.854 6.49223C116.854 7.81934 117.086 8.82349 117.55 9.50466C118.026 10.1741 118.79 10.7848 119.843 11.3368C118.377 11.3368 117.355 10.9199 116.779 10.086C116.203 9.25216 115.915 8.20691 115.915 6.95026C115.915 5.44698 116.453 4.29603 117.531 3.49741C118.608 2.68705 120.438 2.28187 123.019 2.28187Z" fill="#3CB44B"/>
<path d="M143.867 5.54093C144.067 5.54093 144.349 5.74059 144.713 6.1399C145.076 6.53921 145.258 6.92677 145.258 7.30259C145.258 7.53748 145.095 7.96028 144.769 8.57098C144.443 9.16995 143.911 10.133 143.172 11.4601C142.445 12.7755 141.988 13.6446 141.8 14.0674C140.847 12.2822 139.901 10.4971 138.962 8.71192C138.761 9.25216 138.266 10.2211 137.477 11.6187C136.7 13.0162 136.268 13.809 136.18 13.9969C135.178 11.8477 134.351 10.2211 133.699 9.1171C133.06 8.00138 132.547 7.44352 132.158 7.44352C131.983 7.44352 131.77 7.48463 131.519 7.56684C131.281 7.64905 130.999 7.79585 130.674 8.00725C130.937 7.60794 131.331 7.19689 131.858 6.77409C132.384 6.33955 132.885 6.12228 133.361 6.12228C133.862 6.12228 134.539 6.962 135.391 8.64145C136.243 10.3209 136.769 11.325 136.97 11.6539C137.057 11.5482 137.339 11.0079 137.815 10.0332C138.304 9.05838 138.598 8.4418 138.699 8.18342C138.586 8.03074 138.473 7.87219 138.36 7.70777C138.197 7.51986 137.972 7.3848 137.684 7.30259C137.872 7.04421 138.085 6.78584 138.323 6.52746C138.561 6.25734 138.818 6.12228 139.093 6.12228C139.394 6.12228 139.67 6.35129 139.92 6.80933C140.171 7.25561 140.609 8.11883 141.236 9.39896C141.862 10.6674 142.313 11.4073 142.589 11.6187C142.814 11.3485 143.084 10.8846 143.397 10.2269C143.71 9.55751 143.867 9.11123 143.867 8.88808C143.867 8.5475 143.717 8.17755 143.416 7.77824C143.128 7.37893 142.796 7.07358 142.42 6.86218C142.683 6.47461 142.94 6.15751 143.19 5.91088C143.441 5.66425 143.666 5.54093 143.867 5.54093Z" fill="#3CB44B"/>
<path d="M151.502 7.81347L151.484 12.7285C151.496 12.8812 151.571 12.9575 151.709 12.9575C151.897 12.9575 152.254 12.7872 152.78 12.4466C152.605 12.799 152.342 13.1161 151.991 13.3979C151.653 13.6798 151.271 13.8207 150.845 13.8207C150.419 13.8207 150.118 13.6974 149.942 13.4508C149.767 13.1924 149.679 12.8812 149.679 12.5171V8.71192C149.679 8.46528 149.654 8.27737 149.604 8.14819C149.554 8.00725 149.397 7.93679 149.134 7.93679C148.721 7.93679 148.289 8.22452 147.838 8.8C147.386 9.37547 147.161 9.78066 147.161 10.0155V12.0943C147.161 12.5406 146.986 12.9399 146.635 13.2922C146.284 13.6446 145.852 13.8207 145.338 13.8207V5.04767C145.338 4.20207 145.582 3.48566 146.071 2.89845C146.56 2.29948 147.199 2 147.988 2H149.679C149.278 2.68117 148.758 3.04525 148.119 3.09223C147.48 3.12746 147.161 3.23316 147.161 3.40933V9.09948C147.787 8.11295 148.383 7.37893 148.946 6.89741C149.523 6.41589 150.005 6.17513 150.394 6.17513C150.845 6.17513 151.139 6.29257 151.277 6.52746C151.427 6.76235 151.502 7.19102 151.502 7.81347Z" fill="#3CB44B"/>
<path d="M159.59 6.21036V12.7285C159.603 12.8812 159.684 12.9575 159.835 12.9575C159.948 12.9575 160.079 12.9223 160.229 12.8518C160.392 12.7696 160.649 12.6345 161 12.4466C160.837 12.7637 160.561 13.075 160.173 13.3803C159.797 13.6857 159.434 13.8383 159.083 13.8383C158.883 13.8383 158.619 13.7092 158.294 13.4508C157.98 13.1924 157.824 12.8459 157.824 12.4114V11.4601C157.06 12.1765 156.414 12.752 155.888 13.1865C155.362 13.6211 154.904 13.8383 154.516 13.8383C154.09 13.8383 153.708 13.6035 153.37 13.1337C153.044 12.6639 152.881 12.0356 152.881 11.2487C152.881 9.65147 153.351 8.41243 154.291 7.53161C155.23 6.65078 156.452 6.21036 157.955 6.21036H159.59ZM154.685 9.90984C154.685 10.4853 154.785 10.9081 154.986 11.1782C155.186 11.4484 155.462 11.5834 155.813 11.5834C156.114 11.5834 156.433 11.5012 156.771 11.3368C157.122 11.1606 157.473 10.9257 157.824 10.6321V6.70363C156.884 6.70363 156.126 7.03247 155.55 7.69016C154.973 8.3361 154.685 9.07599 154.685 9.90984Z" fill="#3CB44B"/>
</svg>
