<svg width="27" height="27" viewBox="0 0 27 27" fill="none" xmlns="http://www.w3.org/2000/svg">
<path d="M22.8631 7.19653C19.2648 6.83994 15.645 6.65625 12.0359 6.65625C9.89642 6.65625 7.75692 6.76431 5.61742 6.98042L3.41309 7.19653" stroke="white" stroke-width="1.49615" stroke-linecap="round" stroke-linejoin="round"/>
<path d="M9.35645 6.10378L9.59417 4.68825C9.76706 3.66173 9.89672 2.89453 11.7229 2.89453H14.5539C16.3801 2.89453 16.5205 3.70495 16.6826 4.69906L16.9203 6.10378" stroke="white" stroke-width="1.49615" stroke-linecap="round" stroke-linejoin="round"/>
<path d="M20.5399 10.6094L19.8376 21.4906C19.7187 23.187 19.6215 24.5053 16.6067 24.5053H9.66955C6.6548 24.5053 6.55755 23.187 6.43869 21.4906L5.73633 10.6094" stroke="white" stroke-width="1.49615" stroke-linecap="round" stroke-linejoin="round"/>
<path d="M11.334 18.5645H14.9322" stroke="white" stroke-width="1.49615" stroke-linecap="round" stroke-linejoin="round"/>
<path d="M10.4375 14.2402H15.8403" stroke="white" stroke-width="1.49615" stroke-linecap="round" stroke-linejoin="round"/>
</svg>
